<svg xmlns="http://www.w3.org/2000/svg" xmlns:xlink="http://www.w3.org/1999/xlink" viewBox="0 0 183 96" fill="#fff" fill-rule="evenodd" stroke="#000" stroke-linecap="round" stroke-linejoin="round"><use xlink:href="#A" x=".5" y=".5"/><symbol id="A"><g stroke="none" ><path d="M7.207 19.436s.662-3.408 13.725-7.856c13.157-4.544 17.605-3.692 22.906-3.692s15.05 1.136 15.05 1.136h53.479s28.206-.189 37.577-1.136c9.371-1.041 25.083 2.745 27.639 8.613s4.26 20.256 4.26 30.668-.379 31.709-8.424 37.009c-7.951 5.206-34.454 2.934-40.701 2.461-6.247-.379-62.85-.379-62.85-.379l-12.116.379c-2.366 0-15.05 1.609-27.449.663C17.997 86.261 7.68 77.647 7.68 77.647S-.366 67.52.013 47.169s7.194-27.733 7.194-27.733z" fill="#0a72c7"/><path d="M56.9 14.419s22.717 8.14 22.717 8.992c-.095.852-2.177 13.251-2.177 22.338 0 8.992 2.177 25.178 2.177 25.557S58.32 80.108 56.9 80.581c-1.325.379-10.317-3.029-15.239-12.589s-4.544-24.421-3.881-28.774c.568-4.26 5.017-22.054 19.12-24.799zm62.566 12.21v40.133s-.189 2.556 5.111 2.934c5.206.379 15.239 1.515 15.239 1.515l21.865-7.573s3.976-6.058 2.934-19.025c-.947-12.873-3.313-13.441-3.313-13.441l-21.486-7.667s-7.193.189-12.967.568c-4.165.284-7.383.284-7.383 2.555z" fill="#ccf2ff"/><path d="M162.437 31.173s9.371 3.123 9.56 3.502 2.556-.568 1.988 12.494c-.568 13.157.568 12.021-4.26 14.293-4.922 2.366-8.046 2.177-8.046 2.177s5.585-9.181.757-32.466z" fill="#004c99"/><path d="M167.833 31.93l-2.556-13.725s-7.288 1.136-5.869 3.881c1.325 2.745 8.424 9.844 8.424 9.844zm0 30.951l-2.556 13.725s-7.288-1.136-5.869-3.881c1.325-2.745 8.424-9.844 8.424-9.844z" fill="#fed372"/><path d="M11.178 24.211h-4.05s.269-3.924 3.771-6.101 19.404-5.49 19.404-5.49l-3.029 3.029s-10.79 2.934-12.683 4.827c-1.798 1.799-3.169 3.734-3.169 3.734zm-.649 46.086h-3.24s.107 4.227 3.609 6.404 19.404 5.49 19.404 5.49l-3.029-3.029s-10.79-2.934-12.683-4.827c-1.798-1.799-3.25-4.037-3.25-4.037zm69.1-16.371L119.342 53l-.012 8.149c.777 1.298-38.797 1.811-40.738.851-.5-2.5-.75-6.5-.75-8z"/><path d="M62.105 13.567s22.906-.947 37.388 0c14.482 1.041 20.54 3.123 20.54 3.123l9.56 2.556s-10.79 2.934-23.474 3.502c-12.684.663-19.593-.568-19.593-.568l-24.421-8.614zm-.567 67.771s22.906.947 37.388 0c14.482-1.041 20.54-3.123 20.54-3.123l9.56-2.556s-10.79-2.934-23.474-3.502c-12.684-.662-19.593.568-19.593.568l-24.421 8.614z" fill="#ccf2ff"/><path d="M172.282 11.579s-4.07-.757-5.49 1.799c-1.325 2.555 8.803 5.017 8.614 4.638s4.922 13.914 4.354 28.964c-.663 15.05-3.597 28.585-4.354 29.343s-8.046-.189-8.614 5.111 8.235 1.325 8.235 1.325 6.815-6.058 6.815-32.655-4.449-34.359-4.449-34.359-4.733-4.165-5.111-4.165z" fill="#4f4f4f"/><path d="M63.904 11.011l3.502.568s.189-3.313.947-3.313h3.786L75.735.883s-2.461-1.988-5.206 0c-2.745 2.082-4.638 6.815-4.638 6.815l-1.988 3.313zm-.852 72.978l3.502-.568s.189 3.313.947 3.313h3.786l3.597 7.383s-2.461 1.988-5.206 0c-2.745-2.082-4.638-6.815-4.638-6.815l-1.988-3.313zm58.969-71.842s12.305-1.136 25.651 0c13.251 1.231 18.741 2.556 18.741 2.556l-1.136 4.543s-3.124 1.136-3.975 2.367c-.757 1.136.801 4.263.801 4.263l-40.082-13.729zm0 70.706s12.305 1.136 25.651 0c13.251-1.231 18.741-2.556 18.741-2.556l-1.136-4.543s-3.124-1.136-3.975-2.367c-.757-1.136-.394-3.075-.394-3.075l-38.887 12.54z" fill="#004c99"/><path d="M4.557 46.79l.951-.873c.473 0 .942 1.251.942 1.725s-.469 1.677-.942 1.677l-.951-.825c-.993-.795-.852-.379-.852-.852s-.06.057.852-.852z" fill="#fed372"/></g><g transform="scale(-1,-1) translate(-119.35, -39.5)"><path d="M39.713.926L0 0l.012 8.149C-.765 9.447 38.809 9.959 40.75 9c.5-2.5.75-6.5.75-8z" stroke="none"/></g></symbol></svg>