<svg viewBox="0 0 420 297" xmlns="http://www.w3.org/2000/svg" xmlns:xlink="http://www.w3.org/1999/xlink" width="100%" id="trackId2" tracktype="curve"><path d="M0 292 A 292 292 0 0 0 292 0" stroke="black" fill="none" stroke-width="10"></path><path d="M0 282.5 A 282.5 282.5 0 0 0 282.5 0" stroke="black" fill="none" stroke-width="9" stroke-dasharray="9, 425.8122253417969"></path><path d="M0 277.5 A 277.5 277.5 0 0 0 277.5 0" stroke="black" fill="none" stroke-width="1" stroke-dasharray="0, 9, 417.95721435546875, 9"></path><path d="M0 279.1 A 279.1 279.1 0 0 0 279.1 0" stroke="black" fill="none" stroke-width="0.4" stroke-dasharray="0, 19.2354736328125, 7.5, 7.5, 7.5, 7.5, 7.5, 7.5, 7.5, 7.5, 7.5, 7.5, 7.5, 7.5, 7.5, 7.5, 7.5, 7.5, 7.5, 7.5, 7.5, 7.5, 7.5, 7.5, 7.5, 7.5, 7.5, 7.5, 7.5, 7.5, 7.5, 7.5, 7.5, 7.5, 7.5, 7.5, 7.5, 7.5, 7.5, 7.5, 7.5, 7.5, 7.5, 7.5, 7.5, 7.5, 7.5, 7.5, 7.5, 7.5, 7.5, 7.5, 7.5, 7.5, 7.5, 19.2354736328125"></path><path d="M0 279.1 A 279.1 279.1 0 0 0 279.1 0" stroke="black" fill="none" stroke-width="1" stroke-dasharray="0, 109.2354736328125, 7.5, 112.5, 7.5, 112.5, 7.5, 79.2354736328125"></path><path d="M0 275.9 A 275.9 275.9 0 0 0 275.9 0" stroke="black" fill="none" stroke-width="0.4" stroke-dasharray="0, 19.05592019217355, 7.5, 7.3204465593610495, 7.5, 7.3204465593610495, 7.5, 7.3204465593610495, 7.5, 7.3204465593610495, 7.5, 7.3204465593610495, 7.5, 7.3204465593610495, 7.5, 7.3204465593610495, 7.5, 7.3204465593610495, 7.5, 7.3204465593610495, 7.5, 7.3204465593610495, 7.5, 7.3204465593610495, 7.5, 7.3204465593610495, 7.5, 7.3204465593610495, 7.5, 7.3204465593610495, 7.5, 7.3204465593610495, 7.5, 7.3204465593610495, 7.5, 7.3204465593610495, 7.5, 7.3204465593610495, 7.5, 7.3204465593610495, 7.5, 7.3204465593610495, 7.5, 7.3204465593610495, 7.5, 7.3204465593610495, 7.5, 7.3204465593610495, 7.5, 7.3204465593610495, 7.5, 7.3204465593610495, 7.5, 7.3204465593610495, 7.5, 19.05592019217355"></path><path d="M0 275.9 A 275.9 275.9 0 0 0 275.9 0" stroke="black" fill="none" stroke-width="1" stroke-dasharray="0, 122.79904610770089, 7.5, 96.24312591552734, 7.5, 111.06357247488839, 7.5, 7.3204465593610495, 7.5, 63.517259870256694"></path><path d="M0 275.6 A 275.6 275.6 0 0 0 275.6 0" stroke="black" fill="none" stroke-width="1.6" stroke-dasharray="0, 19.039093017578125, 7.5, 110.928955078125, 7.5, 110.928955078125, 7.5, 110.928955078125, 7.5, 7.303619384765625, 7.5, 7.303619384765625, 7.5, 19.039093017578125"></path><path d="M0 272.5 A 272.5 272.5 0 0 0 272.5 0" stroke="black" fill="none" stroke-width="9" stroke-dasharray="9, 410.1021423339844"></path><path d="M0 267.5 A 267.5 267.5 0 0 0 267.5 0" stroke="black" fill="none" stroke-width="1" stroke-dasharray="0, 9, 402.2467956542969, 9"></path><path d="M0 269.1 A 269.1 269.1 0 0 0 269.1 0" stroke="black" fill="none" stroke-width="0.4" stroke-dasharray="0, 18.880172729492188, 7.5, 7.5, 7.5, 7.5, 7.5, 7.5, 7.5, 7.5, 7.5, 7.5, 7.5, 7.5, 7.5, 7.5, 7.5, 7.5, 7.5, 7.5, 7.5, 7.5, 7.5, 7.5, 7.5, 7.5, 7.5, 7.5, 7.5, 7.5, 7.5, 7.5, 7.5, 7.5, 7.5, 7.5, 7.5, 7.5, 7.5, 7.5, 7.5, 7.5, 7.5, 7.5, 7.5, 7.5, 7.5, 7.5, 7.5, 7.5, 7.5, 7.5, 7.5, 18.880172729492188"></path><path d="M0 269.1 A 269.1 269.1 0 0 0 269.1 0" stroke="black" fill="none" stroke-width="1" stroke-dasharray="0, 108.88017272949219, 7.5, 112.5, 7.5, 112.5, 7.5, 63.88017272949219"></path><path d="M0 265.9 A 265.9 265.9 0 0 0 265.9 0" stroke="black" fill="none" stroke-width="0.4" stroke-dasharray="0, 18.693988376193577, 7.5, 7.313815646701389, 7.5, 7.313815646701389, 7.5, 7.313815646701389, 7.5, 7.313815646701389, 7.5, 7.313815646701389, 7.5, 7.313815646701389, 7.5, 7.313815646701389, 7.5, 7.313815646701389, 7.5, 7.313815646701389, 7.5, 7.313815646701389, 7.5, 7.313815646701389, 7.5, 7.313815646701389, 7.5, 7.313815646701389, 7.5, 7.313815646701389, 7.5, 7.313815646701389, 7.5, 7.313815646701389, 7.5, 7.313815646701389, 7.5, 7.313815646701389, 7.5, 7.313815646701389, 7.5, 7.313815646701389, 7.5, 7.313815646701389, 7.5, 7.313815646701389, 7.5, 7.313815646701389, 7.5, 7.313815646701389, 7.5, 7.313815646701389, 7.5, 18.693988376193577"></path><path d="M0 265.9 A 265.9 265.9 0 0 0 265.9 0" stroke="black" fill="none" stroke-width="1" stroke-dasharray="0, 92.76306660970052, 7.5, 111.0105251736111, 7.5, 22.12763129340278, 7.5, 81.38289388020833, 7.5, 7.313815646701389, 7.5, 63.135435316297745"></path><path d="M0 265.6 A 265.6 265.6 0 0 0 265.6 0" stroke="black" fill="none" stroke-width="1.6" stroke-dasharray="0, 18.67652667010272, 7.5, 110.87083152488425, 7.5, 110.87083152488425, 7.5, 110.87083152488425, 7.5, 7.296353940610532, 7.5, 18.67652667010272"></path><path d="M0 262.5 A 262.5 262.5 0 0 0 262.5 0" stroke="black" fill="none" stroke-width="9" stroke-dasharray="9, 394.3918762207031"></path><path d="M0 257.5 A 257.5 257.5 0 0 0 257.5 0" stroke="black" fill="none" stroke-width="1" stroke-dasharray="0, 9, 386.5366516113281, 9"></path><path d="M0 259.1 A 259.1 259.1 0 0 0 259.1 0" stroke="black" fill="none" stroke-width="0.4" stroke-dasharray="0, 18.525192260742188, 7.5, 7.5, 7.5, 7.5, 7.5, 7.5, 7.5, 7.5, 7.5, 7.5, 7.5, 7.5, 7.5, 7.5, 7.5, 7.5, 7.5, 7.5, 7.5, 7.5, 7.5, 7.5, 7.5, 7.5, 7.5, 7.5, 7.5, 7.5, 7.5, 7.5, 7.5, 7.5, 7.5, 7.5, 7.5, 7.5, 7.5, 7.5, 7.5, 7.5, 7.5, 7.5, 7.5, 7.5, 7.5, 7.5, 7.5, 7.5, 7.5, 18.525192260742188"></path><path d="M0 259.1 A 259.1 259.1 0 0 0 259.1 0" stroke="black" fill="none" stroke-width="1" stroke-dasharray="0, 108.52519226074219, 7.5, 112.5, 7.5, 112.5, 7.5, 48.52519226074219"></path><path d="M0 255.9 A 255.9 255.9 0 0 0 255.9 0" stroke="black" fill="none" stroke-width="0.4" stroke-dasharray="0, 18.331828190730167, 7.5, 7.306635929987981, 7.5, 7.306635929987981, 7.5, 7.306635929987981, 7.5, 7.306635929987981, 7.5, 7.306635929987981, 7.5, 7.306635929987981, 7.5, 7.306635929987981, 7.5, 7.306635929987981, 7.5, 7.306635929987981, 7.5, 7.306635929987981, 7.5, 7.306635929987981, 7.5, 7.306635929987981, 7.5, 7.306635929987981, 7.5, 7.306635929987981, 7.5, 7.306635929987981, 7.5, 7.306635929987981, 7.5, 7.306635929987981, 7.5, 7.306635929987981, 7.5, 7.306635929987981, 7.5, 7.306635929987981, 7.5, 7.306635929987981, 7.5, 7.306635929987981, 7.5, 7.306635929987981, 7.5, 7.306635929987981, 7.5, 18.331828190730167"></path><path d="M0 255.9 A 255.9 255.9 0 0 0 255.9 0" stroke="black" fill="none" stroke-width="1" stroke-dasharray="0, 92.36500784067007, 7.5, 7.306635929987981, 7.5, 7.306635929987981, 7.5, 66.53317964993991, 7.5, 110.95308743990384, 7.5, 36.91990778996394, 7.5, 33.13846412071815"></path><path d="M0 255.6 A 255.6 255.6 0 0 0 255.6 0" stroke="black" fill="none" stroke-width="1.6" stroke-dasharray="0, 18.313705444335938, 7.5, 110.80810546875, 7.5, 110.80810546875, 7.5, 110.80810546875, 7.5, 18.313705444335938"></path><path d="M0 252.5 A 252.5 252.5 0 0 0 252.5 0" stroke="black" fill="none" stroke-width="9" stroke-dasharray="9, 378.68157958984375"></path><path d="M0 247.5 A 247.5 247.5 0 0 0 247.5 0" stroke="black" fill="none" stroke-width="1" stroke-dasharray="0, 9, 370.82672119140625, 9"></path><path d="M0 249.1 A 249.1 249.1 0 0 0 249.1 0" stroke="black" fill="none" stroke-width="0.4" stroke-dasharray="0, 18.17010498046875, 7.5, 7.5, 7.5, 7.5, 7.5, 7.5, 7.5, 7.5, 7.5, 7.5, 7.5, 7.5, 7.5, 7.5, 7.5, 7.5, 7.5, 7.5, 7.5, 7.5, 7.5, 7.5, 7.5, 7.5, 7.5, 7.5, 7.5, 7.5, 7.5, 7.5, 7.5, 7.5, 7.5, 7.5, 7.5, 7.5, 7.5, 7.5, 7.5, 7.5, 7.5, 7.5, 7.5, 7.5, 7.5, 7.5, 7.5, 18.17010498046875"></path><path d="M0 249.1 A 249.1 249.1 0 0 0 249.1 0" stroke="black" fill="none" stroke-width="1" stroke-dasharray="0, 108.17010498046875, 7.5, 112.5, 7.5, 153.17010498046875"></path><path d="M0 245.9 A 245.9 245.9 0 0 0 245.9 0" stroke="black" fill="none" stroke-width="0.4" stroke-dasharray="0, 17.9690087890625, 7.5, 7.29890380859375, 7.5, 7.29890380859375, 7.5, 7.29890380859375, 7.5, 7.29890380859375, 7.5, 7.29890380859375, 7.5, 7.29890380859375, 7.5, 7.29890380859375, 7.5, 7.29890380859375, 7.5, 7.29890380859375, 7.5, 7.29890380859375, 7.5, 7.29890380859375, 7.5, 7.29890380859375, 7.5, 7.29890380859375, 7.5, 7.29890380859375, 7.5, 7.29890380859375, 7.5, 7.29890380859375, 7.5, 7.29890380859375, 7.5, 7.29890380859375, 7.5, 7.29890380859375, 7.5, 7.29890380859375, 7.5, 7.29890380859375, 7.5, 7.29890380859375, 7.5, 7.29890380859375, 7.5, 17.9690087890625"></path><path d="M0 245.9 A 245.9 245.9 0 0 0 245.9 0" stroke="black" fill="none" stroke-width="1" stroke-dasharray="0, 77.1646240234375, 7.5, 22.0978076171875, 7.5, 81.2934228515625, 7.5, 22.0978076171875, 7.5, 7.29890380859375, 7.5, 136.3602392578125"></path><path d="M0 245.6 A 245.6 245.6 0 0 0 245.6 0" stroke="black" fill="none" stroke-width="1.6" stroke-dasharray="0, 17.950164794921875, 7.5, 110.740478515625, 7.5, 110.740478515625, 7.5, 7.280059814453125, 7.5, 7.280059814453125, 7.5, 7.280059814453125, 7.5, 7.280059814453125, 7.5, 7.280059814453125, 7.5, 7.280059814453125, 7.5, 7.280059814453125, 7.5, 17.950164794921875"></path><path d="M0 242.5 A 242.5 242.5 0 0 0 242.5 0" stroke="black" fill="none" stroke-width="9" stroke-dasharray="9, 362.9715270996094"></path><path d="M0 237.5 A 237.5 237.5 0 0 0 237.5 0" stroke="black" fill="none" stroke-width="1" stroke-dasharray="0, 9, 355.11639404296875, 9"></path><path d="M0 239.1 A 239.1 239.1 0 0 0 239.1 0" stroke="black" fill="none" stroke-width="0.4" stroke-dasharray="0, 17.815078735351562, 7.5, 7.5, 7.5, 7.5, 7.5, 7.5, 7.5, 7.5, 7.5, 7.5, 7.5, 7.5, 7.5, 7.5, 7.5, 7.5, 7.5, 7.5, 7.5, 7.5, 7.5, 7.5, 7.5, 7.5, 7.5, 7.5, 7.5, 7.5, 7.5, 7.5, 7.5, 7.5, 7.5, 7.5, 7.5, 7.5, 7.5, 7.5, 7.5, 7.5, 7.5, 7.5, 7.5, 7.5, 7.5, 17.815078735351562"></path><path d="M0 239.1 A 239.1 239.1 0 0 0 239.1 0" stroke="black" fill="none" stroke-width="1" stroke-dasharray="0, 107.81507873535156, 7.5, 112.5, 7.5, 137.81507873535156"></path><path d="M0 235.9 A 235.9 235.9 0 0 0 235.9 0" stroke="black" fill="none" stroke-width="0.4" stroke-dasharray="0, 17.60560353597005, 7.5, 7.290524800618489, 7.5, 7.290524800618489, 7.5, 7.290524800618489, 7.5, 7.290524800618489, 7.5, 7.290524800618489, 7.5, 7.290524800618489, 7.5, 7.290524800618489, 7.5, 7.290524800618489, 7.5, 7.290524800618489, 7.5, 7.290524800618489, 7.5, 7.290524800618489, 7.5, 7.290524800618489, 7.5, 7.290524800618489, 7.5, 7.290524800618489, 7.5, 7.290524800618489, 7.5, 7.290524800618489, 7.5, 7.290524800618489, 7.5, 7.290524800618489, 7.5, 7.290524800618489, 7.5, 7.290524800618489, 7.5, 7.290524800618489, 7.5, 7.290524800618489, 7.5, 17.60560353597005"></path><path d="M0 235.9 A 235.9 235.9 0 0 0 235.9 0" stroke="black" fill="none" stroke-width="1" stroke-dasharray="0, 76.76770273844402, 7.5, 7.290524800618489, 7.5, 96.03367360432942, 7.5, 7.290524800618489, 7.5, 22.081049601236977, 7.5, 121.13927714029947"></path><path d="M0 235.6 A 235.6 235.6 0 0 0 235.6 0" stroke="black" fill="none" stroke-width="1.6" stroke-dasharray="0, 17.585970560709633, 7.5, 110.66713460286459, 7.5, 110.66713460286459, 7.5, 7.270891825358072, 7.5, 7.270891825358072, 7.5, 7.270891825358072, 7.5, 7.270891825358072, 7.5, 7.270891825358072, 7.5, 7.270891825358072, 7.5, 17.585970560709633"></path><path d="M0 232.5 A 232.5 232.5 0 0 0 232.5 0" stroke="black" fill="none" stroke-width="9" stroke-dasharray="9, 347.26123046875"></path><path d="M0 227.5 A 227.5 227.5 0 0 0 227.5 0" stroke="black" fill="none" stroke-width="1" stroke-dasharray="0, 9, 339.4062805175781, 9"></path><path d="M0 229.1 A 229.1 229.1 0 0 0 229.1 0" stroke="black" fill="none" stroke-width="0.4" stroke-dasharray="0, 17.459884643554688, 7.5, 7.5, 7.5, 7.5, 7.5, 7.5, 7.5, 7.5, 7.5, 7.5, 7.5, 7.5, 7.5, 7.5, 7.5, 7.5, 7.5, 7.5, 7.5, 7.5, 7.5, 7.5, 7.5, 7.5, 7.5, 7.5, 7.5, 7.5, 7.5, 7.5, 7.5, 7.5, 7.5, 7.5, 7.5, 7.5, 7.5, 7.5, 7.5, 7.5, 7.5, 7.5, 7.5, 17.459884643554688"></path><path d="M0 229.1 A 229.1 229.1 0 0 0 229.1 0" stroke="black" fill="none" stroke-width="1" stroke-dasharray="0, 107.45988464355469, 7.5, 112.5, 7.5, 122.45988464355469"></path><path d="M0 225.9 A 225.9 225.9 0 0 0 225.9 0" stroke="black" fill="none" stroke-width="0.4" stroke-dasharray="0, 17.241303153659988, 7.5, 7.281418510105299, 7.5, 7.281418510105299, 7.5, 7.281418510105299, 7.5, 7.281418510105299, 7.5, 7.281418510105299, 7.5, 7.281418510105299, 7.5, 7.281418510105299, 7.5, 7.281418510105299, 7.5, 7.281418510105299, 7.5, 7.281418510105299, 7.5, 7.281418510105299, 7.5, 7.281418510105299, 7.5, 7.281418510105299, 7.5, 7.281418510105299, 7.5, 7.281418510105299, 7.5, 7.281418510105299, 7.5, 7.281418510105299, 7.5, 7.281418510105299, 7.5, 7.281418510105299, 7.5, 7.281418510105299, 7.5, 7.281418510105299, 7.5, 17.241303153659988"></path><path d="M0 225.9 A 225.9 225.9 0 0 0 225.9 0" stroke="black" fill="none" stroke-width="1" stroke-dasharray="0, 76.36697719408117, 7.5, 7.281418510105299, 7.5, 7.281418510105299, 7.5, 81.1885110606318, 7.5, 7.281418510105299, 7.5, 7.281418510105299, 7.5, 7.281418510105299, 7.5, 105.92981421429178"></path><path d="M0 225.6 A 225.6 225.6 0 0 0 225.6 0" stroke="black" fill="none" stroke-width="1.6" stroke-dasharray="0, 17.220817897630777, 7.5, 110.58746603260872, 7.5, 110.58746603260872, 7.5, 7.260933254076087, 7.5, 7.260933254076087, 7.5, 7.260933254076087, 7.5, 7.260933254076087, 7.5, 7.260933254076087, 7.5, 17.220817897630777"></path><path d="M0 222.5 A 222.5 222.5 0 0 0 222.5 0" stroke="black" fill="none" stroke-width="9" stroke-dasharray="9, 331.55120849609375"></path><path d="M0 217.5 A 217.5 217.5 0 0 0 217.5 0" stroke="black" fill="none" stroke-width="1" stroke-dasharray="0, 9, 323.6960144042969, 9"></path><path d="M0 219.1 A 219.1 219.1 0 0 0 219.1 0" stroke="black" fill="none" stroke-width="0.4" stroke-dasharray="0, 17.104827880859375, 7.5, 7.5, 7.5, 7.5, 7.5, 7.5, 7.5, 7.5, 7.5, 7.5, 7.5, 7.5, 7.5, 7.5, 7.5, 7.5, 7.5, 7.5, 7.5, 7.5, 7.5, 7.5, 7.5, 7.5, 7.5, 7.5, 7.5, 7.5, 7.5, 7.5, 7.5, 7.5, 7.5, 7.5, 7.5, 7.5, 7.5, 7.5, 7.5, 7.5, 7.5, 17.104827880859375"></path><path d="M0 219.1 A 219.1 219.1 0 0 0 219.1 0" stroke="black" fill="none" stroke-width="1" stroke-dasharray="0, 107.10482788085938, 7.5, 112.5, 7.5, 107.10482788085938"></path><path d="M0 215.9 A 215.9 215.9 0 0 0 215.9 0" stroke="black" fill="none" stroke-width="0.4" stroke-dasharray="0, 16.8763164173473, 7.5, 7.271488536487926, 7.5, 7.271488536487926, 7.5, 7.271488536487926, 7.5, 7.271488536487926, 7.5, 7.271488536487926, 7.5, 7.271488536487926, 7.5, 7.271488536487926, 7.5, 7.271488536487926, 7.5, 7.271488536487926, 7.5, 7.271488536487926, 7.5, 7.271488536487926, 7.5, 7.271488536487926, 7.5, 7.271488536487926, 7.5, 7.271488536487926, 7.5, 7.271488536487926, 7.5, 7.271488536487926, 7.5, 7.271488536487926, 7.5, 7.271488536487926, 7.5, 7.271488536487926, 7.5, 7.271488536487926, 7.5, 16.8763164173473"></path><path d="M0 215.9 A 215.9 215.9 0 0 0 215.9 0" stroke="black" fill="none" stroke-width="1" stroke-dasharray="0, 61.19078202681108, 7.5, 110.67190829190339, 7.5, 51.5859541459517, 7.5, 90.73375909978692"></path><path d="M0 215.6 A 215.6 215.6 0 0 0 215.6 0" stroke="black" fill="none" stroke-width="1.6" stroke-dasharray="0, 16.854887528852984, 7.5, 110.50047718394886, 7.5, 110.50047718394886, 7.5, 7.2500596479936075, 7.5, 7.2500596479936075, 7.5, 7.2500596479936075, 7.5, 7.2500596479936075, 7.5, 16.854887528852984"></path><path d="M0 212.5 A 212.5 212.5 0 0 0 212.5 0" stroke="black" fill="none" stroke-width="9" stroke-dasharray="9, 315.8412170410156"></path><path d="M0 207.5 A 207.5 207.5 0 0 0 207.5 0" stroke="black" fill="none" stroke-width="1" stroke-dasharray="0, 9, 307.9859619140625, 9"></path><path d="M0 209.1 A 209.1 209.1 0 0 0 209.1 0" stroke="black" fill="none" stroke-width="0.4" stroke-dasharray="0, 16.749725341796875, 7.5, 7.5, 7.5, 7.5, 7.5, 7.5, 7.5, 7.5, 7.5, 7.5, 7.5, 7.5, 7.5, 7.5, 7.5, 7.5, 7.5, 7.5, 7.5, 7.5, 7.5, 7.5, 7.5, 7.5, 7.5, 7.5, 7.5, 7.5, 7.5, 7.5, 7.5, 7.5, 7.5, 7.5, 7.5, 7.5, 7.5, 7.5, 7.5, 16.749725341796875"></path><path d="M0 209.1 A 209.1 209.1 0 0 0 209.1 0" stroke="black" fill="none" stroke-width="1" stroke-dasharray="0, 106.74972534179688, 7.5, 112.5, 7.5, 91.74972534179688"></path><path d="M0 205.9 A 205.9 205.9 0 0 0 205.9 0" stroke="black" fill="none" stroke-width="0.4" stroke-dasharray="0, 16.51033673967634, 7.5, 7.260611397879464, 7.5, 7.260611397879464, 7.5, 7.260611397879464, 7.5, 7.260611397879464, 7.5, 7.260611397879464, 7.5, 7.260611397879464, 7.5, 7.260611397879464, 7.5, 7.260611397879464, 7.5, 7.260611397879464, 7.5, 7.260611397879464, 7.5, 7.260611397879464, 7.5, 7.260611397879464, 7.5, 7.260611397879464, 7.5, 7.260611397879464, 7.5, 7.260611397879464, 7.5, 7.260611397879464, 7.5, 7.260611397879464, 7.5, 7.260611397879464, 7.5, 7.260611397879464, 7.5, 16.51033673967634"></path><path d="M0 205.9 A 205.9 205.9 0 0 0 205.9 0" stroke="black" fill="none" stroke-width="1" stroke-dasharray="0, 60.792170933314736, 7.5, 36.781834193638396, 7.5, 66.30305698939732, 7.5, 36.781834193638396, 7.5, 7.260611397879464, 7.5, 75.55278233119421"></path><path d="M0 205.6 A 205.6 205.6 0 0 0 205.6 0" stroke="black" fill="none" stroke-width="1.6" stroke-dasharray="0, 16.487901960100448, 7.5, 110.40541294642857, 7.5, 110.40541294642857, 7.5, 7.238176618303571, 7.5, 7.238176618303571, 7.5, 7.238176618303571, 7.5, 16.487901960100448"></path><path d="M0 202.5 A 202.5 202.5 0 0 0 202.5 0" stroke="black" fill="none" stroke-width="9" stroke-dasharray="9, 300.13104248046875"></path><path d="M0 197.5 A 197.5 197.5 0 0 0 197.5 0" stroke="black" fill="none" stroke-width="1" stroke-dasharray="0, 9, 292.2756042480469, 9"></path><path d="M0 199.1 A 199.1 199.1 0 0 0 199.1 0" stroke="black" fill="none" stroke-width="0.4" stroke-dasharray="0, 16.394729614257812, 7.5, 7.5, 7.5, 7.5, 7.5, 7.5, 7.5, 7.5, 7.5, 7.5, 7.5, 7.5, 7.5, 7.5, 7.5, 7.5, 7.5, 7.5, 7.5, 7.5, 7.5, 7.5, 7.5, 7.5, 7.5, 7.5, 7.5, 7.5, 7.5, 7.5, 7.5, 7.5, 7.5, 7.5, 7.5, 7.5, 7.5, 16.394729614257812"></path><path d="M0 199.1 A 199.1 199.1 0 0 0 199.1 0" stroke="black" fill="none" stroke-width="1" stroke-dasharray="0, 106.39472961425781, 7.5, 112.5, 7.5, 76.39472961425781"></path><path d="M0 195.9 A 195.9 195.9 0 0 0 195.9 0" stroke="black" fill="none" stroke-width="0.4" stroke-dasharray="0, 16.14337158203125, 7.5, 7.2486419677734375, 7.5, 7.2486419677734375, 7.5, 7.2486419677734375, 7.5, 7.2486419677734375, 7.5, 7.2486419677734375, 7.5, 7.2486419677734375, 7.5, 7.2486419677734375, 7.5, 7.2486419677734375, 7.5, 7.2486419677734375, 7.5, 7.2486419677734375, 7.5, 7.2486419677734375, 7.5, 7.2486419677734375, 7.5, 7.2486419677734375, 7.5, 7.2486419677734375, 7.5, 7.2486419677734375, 7.5, 7.2486419677734375, 7.5, 7.2486419677734375, 7.5, 7.2486419677734375, 7.5, 16.14337158203125"></path><path d="M0 195.9 A 195.9 195.9 0 0 0 195.9 0" stroke="black" fill="none" stroke-width="1" stroke-dasharray="0, 60.38929748535156, 7.5, 21.997283935546875, 7.5, 80.99185180664062, 7.5, 21.997283935546875, 7.5, 21.997283935546875, 7.5, 60.38929748535156"></path><path d="M0 195.6 A 195.6 195.6 0 0 0 195.6 0" stroke="black" fill="none" stroke-width="1.6" stroke-dasharray="0, 16.11980743408203, 7.5, 110.30062255859376, 7.5, 110.30062255859376, 7.5, 7.225077819824219, 7.5, 7.225077819824219, 7.5, 16.11980743408203"></path><path d="M0 192.5 A 192.5 192.5 0 0 0 192.5 0" stroke="black" fill="none" stroke-width="9" stroke-dasharray="9, 284.42071533203125"></path><path d="M0 183 A 183 183 0 0 0 183 0" stroke="black" fill="none" stroke-width="10"></path></svg>