<svg viewBox="0 0 420 297" xmlns="http://www.w3.org/2000/svg" xmlns:xlink="http://www.w3.org/1999/xlink" width="100%" id="trackId7" tracktype="junction"><path stroke="black" fill="none" d="M210 0 A 210 223.5 0 0 1 0 223.5" stroke-width="9" stroke-dasharray="9, 322.6001892089844"></path><path stroke="black" fill="none" d="M205 0 A 205 218.5 0 0 1 0 218.5" stroke-width="1" stroke-dasharray="0, 9, 314.7475280761719, 9"></path><path stroke="black" fill="none" d="M206.6 0 A 206.6 220.1 0 0 1 0 220.1" stroke-width="0.4" stroke-dasharray="0, 20.130218505859375, 7.5, 7.5, 7.5, 7.5, 7.5, 7.5, 7.5, 7.5, 7.5, 7.5, 7.5, 7.5, 7.5, 7.5, 7.5, 7.5, 7.5, 7.5, 7.5, 7.5, 7.5, 7.5, 7.5, 7.5, 7.5, 7.5, 7.5, 7.5, 7.5, 7.5, 7.5, 7.5, 7.5, 7.5, 7.5, 7.5, 7.5, 7.5, 7.5, 20.130218505859375"></path><path stroke="black" fill="none" d="M206.6 0 A 206.6 220.1 0 0 1 0 220.1" stroke-width="1" stroke-dasharray="0, 95.13021850585938, 7.5, 7.5, 7.5, 7.5, 7.5, 82.5, 7.5, 7.5, 7.5, 7.5, 7.5, 80.13021850585938"></path><path stroke="black" fill="none" d="M203.4 0 A 203.4 216.9 0 0 1 0 216.9" stroke-width="0.4" stroke-dasharray="0, 19.888715471540177, 7.5, 7.258496965680804, 7.5, 7.258496965680804, 7.5, 7.258496965680804, 7.5, 7.258496965680804, 7.5, 7.258496965680804, 7.5, 7.258496965680804, 7.5, 7.258496965680804, 7.5, 7.258496965680804, 7.5, 7.258496965680804, 7.5, 7.258496965680804, 7.5, 7.258496965680804, 7.5, 7.258496965680804, 7.5, 7.258496965680804, 7.5, 7.258496965680804, 7.5, 7.258496965680804, 7.5, 7.258496965680804, 7.5, 7.258496965680804, 7.5, 7.258496965680804, 7.5, 7.258496965680804, 7.5, 19.888715471540177"></path><path stroke="black" fill="none" d="M203.4 0 A 203.4 216.9 0 0 1 0 216.9" stroke-width="1" stroke-dasharray="0, 123.1981942313058, 7.5, 95.80947875976562, 7.5, 93.6812002999442"></path><path stroke="black" fill="none" d="M203.1 0 A 203.1 216.6 0 0 1 0 216.6" stroke-width="1.6" stroke-dasharray="0, 19.866279238746277, 7.5, 110.38848586309521, 7.5, 110.38848586309521, 7.5, 7.236060732886905, 7.5, 7.236060732886905, 7.5, 7.236060732886905, 7.5, 19.866279238746277"></path><path stroke="black" fill="none" d="M200 0 A 200 213.5 0 0 1 0 213.5" stroke-width="9" stroke-dasharray="9, 306.89422607421875"></path><path stroke="black" fill="none" d="M195 0 A 195 208.5 0 0 1 0 208.5" stroke-width="1" stroke-dasharray="0, 9, 299.041259765625, 9"></path><path stroke="black" fill="none" d="M196.6 0 A 196.6 210.1 0 0 1 0 210.1" stroke-width="0.4" stroke-dasharray="0, 19.755035400390625, 7.5, 7.5, 7.5, 7.5, 7.5, 7.5, 7.5, 7.5, 7.5, 7.5, 7.5, 7.5, 7.5, 7.5, 7.5, 7.5, 7.5, 7.5, 7.5, 7.5, 7.5, 7.5, 7.5, 7.5, 7.5, 7.5, 7.5, 7.5, 7.5, 7.5, 7.5, 7.5, 7.5, 7.5, 7.5, 7.5, 7.5, 19.755035400390625"></path><path stroke="black" fill="none" d="M196.6 0 A 196.6 210.1 0 0 1 0 210.1" stroke-width="1" stroke-dasharray="0, 94.75503540039062, 7.5, 7.5, 7.5, 7.5, 7.5, 82.5, 7.5, 7.5, 7.5, 7.5, 7.5, 64.75503540039062"></path><path stroke="black" fill="none" d="M193.4 0 A 193.4 206.9 0 0 1 0 206.9" stroke-width="0.4" stroke-dasharray="0, 19.50594482421875, 7.5, 7.250909423828125, 7.5, 7.250909423828125, 7.5, 7.250909423828125, 7.5, 7.250909423828125, 7.5, 7.250909423828125, 7.5, 7.250909423828125, 7.5, 7.250909423828125, 7.5, 7.250909423828125, 7.5, 7.250909423828125, 7.5, 7.250909423828125, 7.5, 7.250909423828125, 7.5, 7.250909423828125, 7.5, 7.250909423828125, 7.5, 7.250909423828125, 7.5, 7.250909423828125, 7.5, 7.250909423828125, 7.5, 7.250909423828125, 7.5, 7.250909423828125, 7.5, 19.50594482421875"></path><path stroke="black" fill="none" d="M193.4 0 A 193.4 206.9 0 0 1 0 206.9" stroke-width="1" stroke-dasharray="0, 108.01140136718749, 7.5, 7.250909423828125, 7.5, 81.00545654296874, 7.5, 93.26049194335937"></path><path stroke="black" fill="none" d="M193.1 0 A 193.1 206.6 0 0 1 0 206.6" stroke-width="1.6" stroke-dasharray="0, 19.482391357421875, 7.5, 110.31884765625, 7.5, 110.31884765625, 7.5, 7.22735595703125, 7.5, 7.22735595703125, 7.5, 19.482391357421875"></path><path stroke="black" fill="none" d="M190 0 A 190 203.5 0 0 1 0 203.5" stroke-width="9" stroke-dasharray="9, 291.188232421875"></path><path stroke="black" fill="none" d="M185 0 A 185 198.5 0 0 1 0 198.5" stroke-width="1" stroke-dasharray="0, 9, 283.33575439453125, 9"></path><path stroke="black" fill="none" d="M186.6 0 A 186.6 200.1 0 0 1 0 200.1" stroke-width="0.4" stroke-dasharray="0, 19.42431640625, 7.5, 7.5, 7.5, 7.5, 7.5, 7.5, 7.5, 7.5, 7.5, 7.5, 7.5, 7.5, 7.5, 7.5, 7.5, 7.5, 7.5, 7.5, 7.5, 7.5, 7.5, 7.5, 7.5, 7.5, 7.5, 7.5, 7.5, 7.5, 7.5, 7.5, 7.5, 7.5, 7.5, 7.5, 7.5, 19.42431640625"></path><path stroke="black" fill="none" d="M186.6 0 A 186.6 200.1 0 0 1 0 200.1" stroke-width="1" stroke-dasharray="0, 94.42431640625, 7.5, 7.5, 7.5, 7.5, 7.5, 82.5, 7.5, 7.5, 7.5, 7.5, 7.5, 49.42431640625"></path><path stroke="black" fill="none" d="M183.4 0 A 183.4 196.9 0 0 1 0 196.9" stroke-width="0.4" stroke-dasharray="0, 19.15980288856908, 7.5, 7.235486482319079, 7.5, 7.235486482319079, 7.5, 7.235486482319079, 7.5, 7.235486482319079, 7.5, 7.235486482319079, 7.5, 7.235486482319079, 7.5, 7.235486482319079, 7.5, 7.235486482319079, 7.5, 7.235486482319079, 7.5, 7.235486482319079, 7.5, 7.235486482319079, 7.5, 7.235486482319079, 7.5, 7.235486482319079, 7.5, 7.235486482319079, 7.5, 7.235486482319079, 7.5, 7.235486482319079, 7.5, 7.235486482319079, 7.5, 19.15980288856908"></path><path stroke="black" fill="none" d="M183.4 0 A 183.4 196.9 0 0 1 0 196.9" stroke-width="1" stroke-dasharray="0, 92.83723530016447, 7.5, 21.970972964638158, 7.5, 80.91291889391447, 7.5, 7.235486482319079, 7.5, 63.366262335526315"></path><path stroke="black" fill="none" d="M183.1 0 A 183.1 196.6 0 0 1 0 196.6" stroke-width="1.6" stroke-dasharray="0, 19.13501779656661, 7.5, 110.1856111225329, 7.5, 110.1856111225329, 7.5, 7.210701390316611, 7.5, 19.13501779656661"></path><path stroke="black" fill="none" d="M180 0 A 180 193.5 0 0 1 0 193.5" stroke-width="9" stroke-dasharray="9, 275.4831237792969"></path><path stroke="black" fill="none" d="M175 0 A 175 188.5 0 0 1 0 188.5" stroke-width="1" stroke-dasharray="0, 9, 267.6307067871094, 9"></path><path stroke="black" fill="none" d="M176.6 0 A 176.6 190.1 0 0 1 0 190.1" stroke-width="0.4" stroke-dasharray="0, 19.071731567382812, 7.5, 7.5, 7.5, 7.5, 7.5, 7.5, 7.5, 7.5, 7.5, 7.5, 7.5, 7.5, 7.5, 7.5, 7.5, 7.5, 7.5, 7.5, 7.5, 7.5, 7.5, 7.5, 7.5, 7.5, 7.5, 7.5, 7.5, 7.5, 7.5, 7.5, 7.5, 7.5, 7.5, 19.071731567382812"></path><path stroke="black" fill="none" d="M176.6 0 A 176.6 190.1 0 0 1 0 190.1" stroke-width="1" stroke-dasharray="0, 94.07173156738281, 7.5, 7.5, 7.5, 7.5, 7.5, 82.5, 7.5, 7.5, 7.5, 7.5, 7.5, 34.07173156738281"></path><path stroke="black" fill="none" d="M173.4 0 A 173.4 186.9 0 0 1 0 186.9" stroke-width="0.4" stroke-dasharray="0, 18.79253641764323, 7.5, 7.220804850260417, 7.5, 7.220804850260417, 7.5, 7.220804850260417, 7.5, 7.220804850260417, 7.5, 7.220804850260417, 7.5, 7.220804850260417, 7.5, 7.220804850260417, 7.5, 7.220804850260417, 7.5, 7.220804850260417, 7.5, 7.220804850260417, 7.5, 7.220804850260417, 7.5, 7.220804850260417, 7.5, 7.220804850260417, 7.5, 7.220804850260417, 7.5, 7.220804850260417, 7.5, 7.220804850260417, 7.5, 18.79253641764323"></path><path stroke="black" fill="none" d="M173.4 0 A 173.4 186.9 0 0 1 0 186.9" stroke-width="1" stroke-dasharray="0, 92.39656066894531, 7.5, 7.220804850260417, 7.5, 7.220804850260417, 7.5, 66.10402425130208, 7.5, 77.67575581868489"></path><path stroke="black" fill="none" d="M173.1 0 A 173.1 186.6 0 0 1 0 186.6" stroke-width="1.6" stroke-dasharray="0, 18.76637437608507, 7.5, 110.05714246961806, 7.5, 110.05714246961806, 7.5, 18.76637437608507"></path><path stroke="black" fill="none" d="M170 0 A 170 183.5 0 0 1 0 183.5" stroke-width="9" stroke-dasharray="9, 259.7784423828125"></path><path stroke="black" fill="none" d="M165 0 A 165 178.5 0 0 1 0 178.5" stroke-width="1" stroke-dasharray="0, 9, 251.92636108398438, 9"></path><path stroke="black" fill="none" d="M166.6 0 A 166.6 180.1 0 0 1 0 180.1" stroke-width="0.4" stroke-dasharray="0, 18.70074462890625, 7.5, 7.5, 7.5, 7.5, 7.5, 7.5, 7.5, 7.5, 7.5, 7.5, 7.5, 7.5, 7.5, 7.5, 7.5, 7.5, 7.5, 7.5, 7.5, 7.5, 7.5, 7.5, 7.5, 7.5, 7.5, 7.5, 7.5, 7.5, 7.5, 7.5, 7.5, 18.70074462890625"></path><path stroke="black" fill="none" d="M166.6 0 A 166.6 180.1 0 0 1 0 180.1" stroke-width="1" stroke-dasharray="0, 93.70074462890625, 7.5, 7.5, 7.5, 7.5, 7.5, 138.70074462890625"></path><path stroke="black" fill="none" d="M163.4 0 A 163.4 176.9 0 0 1 0 176.9" stroke-width="0.4" stroke-dasharray="0, 18.40733606675092, 7.5, 7.206591437844669, 7.5, 7.206591437844669, 7.5, 7.206591437844669, 7.5, 7.206591437844669, 7.5, 7.206591437844669, 7.5, 7.206591437844669, 7.5, 7.206591437844669, 7.5, 7.206591437844669, 7.5, 7.206591437844669, 7.5, 7.206591437844669, 7.5, 7.206591437844669, 7.5, 7.206591437844669, 7.5, 7.206591437844669, 7.5, 7.206591437844669, 7.5, 7.206591437844669, 7.5, 18.40733606675092"></path><path stroke="black" fill="none" d="M163.4 0 A 163.4 176.9 0 0 1 0 176.9" stroke-width="1" stroke-dasharray="0, 77.2337018181296, 7.5, 36.61977431353401, 7.5, 136.06006756950828"></path><path stroke="black" fill="none" d="M163.1 0 A 163.1 176.6 0 0 1 0 176.6" stroke-width="1.6" stroke-dasharray="0, 18.379627900965072, 7.5, 109.9310661764706, 7.5, 7.178883272058823, 7.5, 7.178883272058823, 7.5, 7.178883272058823, 7.5, 7.178883272058823, 7.5, 7.178883272058823, 7.5, 7.178883272058823, 7.5, 7.178883272058823, 7.5, 18.379627900965072"></path><path stroke="black" fill="none" d="M160 0 A 160 173.5 0 0 1 0 173.5" stroke-width="9" stroke-dasharray="9, 244.07437133789062"></path><path stroke="black" fill="none" d="M150.5 0 A 150.5 164 0 0 1 0 164" stroke-width="10"></path><path stroke="black" fill="none" d="M210 0 A 210 213.5 0 0 0 420 213.5" stroke-width="9" stroke-dasharray="9, 314.66839599609375"></path><path stroke="black" fill="none" d="M215 0 A 205 208.5 0 0 0 420 208.5" stroke-width="1" stroke-dasharray="0, 9, 306.81341552734375, 9"></path><path stroke="black" fill="none" d="M213.4 0 A 206.6 210.1 0 0 0 420 210.1" stroke-width="0.4" stroke-dasharray="0, 16.1634521484375, 7.5, 7.5, 7.5, 7.5, 7.5, 7.5, 7.5, 7.5, 7.5, 7.5, 7.5, 7.5, 7.5, 7.5, 7.5, 7.5, 7.5, 7.5, 7.5, 7.5, 7.5, 7.5, 7.5, 7.5, 7.5, 7.5, 7.5, 7.5, 7.5, 7.5, 7.5, 7.5, 7.5, 7.5, 7.5, 7.5, 7.5, 7.5, 7.5, 16.1634521484375"></path><path stroke="black" fill="none" d="M213.4 0 A 206.6 210.1 0 0 0 420 210.1" stroke-width="1" stroke-dasharray="0, 91.1634521484375, 7.5, 7.5, 7.5, 7.5, 7.5, 82.5, 7.5, 7.5, 7.5, 7.5, 7.5, 76.1634521484375"></path><path stroke="black" fill="none" d="M216.6 0 A 203.4 206.9 0 0 0 420 206.9" stroke-width="0.4" stroke-dasharray="0, 15.924078078497024, 7.5, 7.260625930059524, 7.5, 7.260625930059524, 7.5, 7.260625930059524, 7.5, 7.260625930059524, 7.5, 7.260625930059524, 7.5, 7.260625930059524, 7.5, 7.260625930059524, 7.5, 7.260625930059524, 7.5, 7.260625930059524, 7.5, 7.260625930059524, 7.5, 7.260625930059524, 7.5, 7.260625930059524, 7.5, 7.260625930059524, 7.5, 7.260625930059524, 7.5, 7.260625930059524, 7.5, 7.260625930059524, 7.5, 7.260625930059524, 7.5, 7.260625930059524, 7.5, 7.260625930059524, 7.5, 15.924078078497024"></path><path stroke="black" fill="none" d="M216.6 0 A 203.4 206.9 0 0 0 420 206.9" stroke-width="1" stroke-dasharray="0, 74.96658179873512, 7.5, 22.021251860119047, 7.5, 81.06375558035714, 7.5, 22.021251860119047, 7.5, 7.260625930059524, 7.5, 74.96658179873512"></path><path stroke="black" fill="none" d="M216.9 0 A 203.1 206.6 0 0 0 420 206.6" stroke-width="1.6" stroke-dasharray="0, 15.901631673177084, 7.5, 110.40543619791666, 7.5, 110.40543619791666, 7.5, 7.238179524739583, 7.5, 7.238179524739583, 7.5, 7.238179524739583, 7.5, 15.901631673177084"></path><path stroke="black" fill="none" d="M220 0 A 200 203.5 0 0 0 420 203.5" stroke-width="9" stroke-dasharray="9, 298.9586181640625"></path><path stroke="black" fill="none" d="M225 0 A 195 198.5 0 0 0 420 198.5" stroke-width="1" stroke-dasharray="0, 9, 291.1036682128906, 9"></path><path stroke="black" fill="none" d="M223.4 0 A 196.6 200.1 0 0 0 420 200.1" stroke-width="0.4" stroke-dasharray="0, 15.808609008789062, 7.5, 7.5, 7.5, 7.5, 7.5, 7.5, 7.5, 7.5, 7.5, 7.5, 7.5, 7.5, 7.5, 7.5, 7.5, 7.5, 7.5, 7.5, 7.5, 7.5, 7.5, 7.5, 7.5, 7.5, 7.5, 7.5, 7.5, 7.5, 7.5, 7.5, 7.5, 7.5, 7.5, 7.5, 7.5, 7.5, 7.5, 15.808609008789062"></path><path stroke="black" fill="none" d="M223.4 0 A 196.6 200.1 0 0 0 420 200.1" stroke-width="1" stroke-dasharray="0, 90.80860900878906, 7.5, 7.5, 7.5, 7.5, 7.5, 82.5, 7.5, 7.5, 7.5, 7.5, 7.5, 60.80860900878906"></path><path stroke="black" fill="none" d="M226.6 0 A 193.4 196.9 0 0 0 420 196.9" stroke-width="0.4" stroke-dasharray="0, 15.557237243652343, 7.5, 7.248628234863281, 7.5, 7.248628234863281, 7.5, 7.248628234863281, 7.5, 7.248628234863281, 7.5, 7.248628234863281, 7.5, 7.248628234863281, 7.5, 7.248628234863281, 7.5, 7.248628234863281, 7.5, 7.248628234863281, 7.5, 7.248628234863281, 7.5, 7.248628234863281, 7.5, 7.248628234863281, 7.5, 7.248628234863281, 7.5, 7.248628234863281, 7.5, 7.248628234863281, 7.5, 7.248628234863281, 7.5, 7.248628234863281, 7.5, 7.248628234863281, 7.5, 15.557237243652343"></path><path stroke="black" fill="none" d="M226.6 0 A 193.4 196.9 0 0 0 420 196.9" stroke-width="1" stroke-dasharray="0, 74.55175018310547, 7.5, 7.248628234863281, 7.5, 95.74039764404296, 7.5, 7.248628234863281, 7.5, 21.997256469726562, 7.5, 59.803121948242186"></path><path stroke="black" fill="none" d="M226.9 0 A 193.1 196.6 0 0 0 420 196.6" stroke-width="1.6" stroke-dasharray="0, 15.533688354492186, 7.5, 110.30063476562499, 7.5, 110.30063476562499, 7.5, 7.225079345703125, 7.5, 7.225079345703125, 7.5, 15.533688354492186"></path><path stroke="black" fill="none" d="M230 0 A 190 193.5 0 0 0 420 193.5" stroke-width="9" stroke-dasharray="9, 283.2485656738281"></path><path stroke="black" fill="none" d="M235 0 A 185 188.5 0 0 0 420 188.5" stroke-width="1" stroke-dasharray="0, 9, 275.39361572265625, 9"></path><path stroke="black" fill="none" d="M233.4 0 A 186.6 190.1 0 0 0 420 190.1" stroke-width="0.4" stroke-dasharray="0, 15.453628540039062, 7.5, 7.5, 7.5, 7.5, 7.5, 7.5, 7.5, 7.5, 7.5, 7.5, 7.5, 7.5, 7.5, 7.5, 7.5, 7.5, 7.5, 7.5, 7.5, 7.5, 7.5, 7.5, 7.5, 7.5, 7.5, 7.5, 7.5, 7.5, 7.5, 7.5, 7.5, 7.5, 7.5, 7.5, 7.5, 15.453628540039062"></path><path stroke="black" fill="none" d="M233.4 0 A 186.6 190.1 0 0 0 420 190.1" stroke-width="1" stroke-dasharray="0, 90.45362854003906, 7.5, 7.5, 7.5, 7.5, 7.5, 82.5, 7.5, 7.5, 7.5, 7.5, 7.5, 45.45362854003906"></path><path stroke="black" fill="none" d="M236.6 0 A 183.4 186.9 0 0 0 420 186.9" stroke-width="0.4" stroke-dasharray="0, 15.18904595626028, 7.5, 7.2354174162212175, 7.5, 7.2354174162212175, 7.5, 7.2354174162212175, 7.5, 7.2354174162212175, 7.5, 7.2354174162212175, 7.5, 7.2354174162212175, 7.5, 7.2354174162212175, 7.5, 7.2354174162212175, 7.5, 7.2354174162212175, 7.5, 7.2354174162212175, 7.5, 7.2354174162212175, 7.5, 7.2354174162212175, 7.5, 7.2354174162212175, 7.5, 7.2354174162212175, 7.5, 7.2354174162212175, 7.5, 7.2354174162212175, 7.5, 7.2354174162212175, 7.5, 15.18904595626028"></path><path stroke="black" fill="none" d="M236.6 0 A 183.4 186.9 0 0 0 420 186.9" stroke-width="1" stroke-dasharray="0, 74.13071562114516, 7.5, 7.2354174162212175, 7.5, 7.2354174162212175, 7.5, 80.91250449732732, 7.5, 7.2354174162212175, 7.5, 7.2354174162212175, 7.5, 7.2354174162212175, 7.5, 44.659880788702715"></path><path stroke="black" fill="none" d="M236.9 0 A 183.1 186.6 0 0 0 420 186.6" stroke-width="1.6" stroke-dasharray="0, 15.164243196186266, 7.5, 110.18491724917763, 7.5, 110.18491724917763, 7.5, 7.210614656147205, 7.5, 15.164243196186266"></path><path stroke="black" fill="none" d="M240 0 A 180 183.5 0 0 0 420 183.5" stroke-width="9" stroke-dasharray="9, 267.5390625"></path><path stroke="black" fill="none" d="M245 0 A 175 178.5 0 0 0 420 178.5" stroke-width="1" stroke-dasharray="0, 9, 259.6838684082031, 9"></path><path stroke="black" fill="none" d="M243.4 0 A 176.6 180.1 0 0 0 420 180.1" stroke-width="0.4" stroke-dasharray="0, 15.098785400390625, 7.5, 7.5, 7.5, 7.5, 7.5, 7.5, 7.5, 7.5, 7.5, 7.5, 7.5, 7.5, 7.5, 7.5, 7.5, 7.5, 7.5, 7.5, 7.5, 7.5, 7.5, 7.5, 7.5, 7.5, 7.5, 7.5, 7.5, 7.5, 7.5, 7.5, 7.5, 7.5, 7.5, 15.098785400390625"></path><path stroke="black" fill="none" d="M243.4 0 A 176.6 180.1 0 0 0 420 180.1" stroke-width="1" stroke-dasharray="0, 90.09878540039062, 7.5, 7.5, 7.5, 7.5, 7.5, 82.5, 7.5, 7.5, 7.5, 7.5, 7.5, 30.098785400390625"></path><path stroke="black" fill="none" d="M246.6 0 A 173.4 176.9 0 0 0 420 176.9" stroke-width="0.4" stroke-dasharray="0, 14.819497002495659, 7.5, 7.220711602105035, 7.5, 7.220711602105035, 7.5, 7.220711602105035, 7.5, 7.220711602105035, 7.5, 7.220711602105035, 7.5, 7.220711602105035, 7.5, 7.220711602105035, 7.5, 7.220711602105035, 7.5, 7.220711602105035, 7.5, 7.220711602105035, 7.5, 7.220711602105035, 7.5, 7.220711602105035, 7.5, 7.220711602105035, 7.5, 7.220711602105035, 7.5, 7.220711602105035, 7.5, 7.220711602105035, 7.5, 14.819497002495659"></path><path stroke="black" fill="none" d="M246.6 0 A 173.4 176.9 0 0 0 420 176.9" stroke-width="1" stroke-dasharray="0, 58.98163180881076, 7.5, 110.2656928168403, 7.5, 51.382846408420136, 7.5, 29.540208604600693"></path><path stroke="black" fill="none" d="M246.9 0 A 173.1 176.6 0 0 0 420 176.6" stroke-width="1.6" stroke-dasharray="0, 14.79331800672743, 7.5, 110.05626085069444, 7.5, 110.05626085069444, 7.5, 14.79331800672743"></path><path stroke="black" fill="none" d="M250 0 A 170 173.5 0 0 0 420 173.5" stroke-width="9" stroke-dasharray="9, 251.82901000976562"></path><path stroke="black" fill="none" d="M259.5 0 A 160.5 164 0 0 0 420 164" stroke-width="10"></path><path d="M0 293 H 420" stroke="black" fill="none" stroke-width="10"></path><path d="M0 283.5 H 420" stroke="black" fill="none" stroke-width="9" stroke-dasharray="9, 402"></path><path d="M0 278.5 H 420" stroke="black" fill="none" stroke-width="1" stroke-dasharray="0, 9, 402, 9"></path><path d="M0 280.1 H 420" stroke="black" fill="none" stroke-width="0.4" stroke-dasharray="0, 17.5, 7.5, 7.5, 7.5, 7.5, 7.5, 7.5, 7.5, 7.5, 7.5, 7.5, 7.5, 7.5, 7.5, 7.5, 7.5, 7.5, 7.5, 7.5, 7.5, 7.5, 7.5, 7.5, 7.5, 7.5, 7.5, 7.5, 7.5, 7.5, 7.5, 7.5, 7.5, 7.5, 7.5, 7.5, 7.5, 7.5, 7.5, 7.5, 7.5, 7.5, 7.5, 7.5, 7.5, 7.5, 7.5, 7.5, 7.5, 7.5, 7.5, 7.5, 7.5, 17.5"></path><path d="M0 280.1 H 420" stroke="black" fill="none" stroke-width="1" stroke-dasharray="0, 92.5, 7.5, 7.5, 7.5, 7.5, 7.5, 82.5, 7.5, 7.5, 7.5, 7.5, 7.5, 82.5, 7.5, 7.5, 7.5, 7.5, 7.5, 47.5"></path><path d="M0 276.9 H 420" stroke="black" fill="none" stroke-width="0.4" stroke-dasharray="0, 17.5, 7.5, 7.5, 7.5, 7.5, 7.5, 7.5, 7.5, 7.5, 7.5, 7.5, 7.5, 7.5, 7.5, 7.5, 7.5, 7.5, 7.5, 7.5, 7.5, 7.5, 7.5, 7.5, 7.5, 7.5, 7.5, 7.5, 7.5, 7.5, 7.5, 7.5, 7.5, 7.5, 7.5, 7.5, 7.5, 7.5, 7.5, 7.5, 7.5, 7.5, 7.5, 7.5, 7.5, 7.5, 7.5, 7.5, 7.5, 7.5, 7.5, 7.5, 7.5, 17.5"></path><path d="M0 276.9 H 420" stroke="black" fill="none" stroke-width="1" stroke-dasharray="0, 62.5, 7.5, 37.5, 7.5, 67.5, 7.5, 37.5, 7.5, 7.5, 7.5, 52.5, 7.5, 22.5, 7.5, 77.5"></path><path d="M0 276.6 H 420" stroke="black" fill="none" stroke-width="1.6" stroke-dasharray="0, 17.5, 7.5, 112.5, 7.5, 112.5, 7.5, 112.5, 7.5, 7.5, 7.5, 17.5"></path><path d="M0 273.5 H 420" stroke="black" fill="none" stroke-width="9" stroke-dasharray="9, 402"></path><path d="M0 268.5 H 420" stroke="black" fill="none" stroke-width="1" stroke-dasharray="0, 9, 402, 9"></path><path d="M0 270.1 H 420" stroke="black" fill="none" stroke-width="0.4" stroke-dasharray="0, 17.5, 7.5, 7.5, 7.5, 7.5, 7.5, 7.5, 7.5, 7.5, 7.5, 7.5, 7.5, 7.5, 7.5, 7.5, 7.5, 7.5, 7.5, 7.5, 7.5, 7.5, 7.5, 7.5, 7.5, 7.5, 7.5, 7.5, 7.5, 7.5, 7.5, 7.5, 7.5, 7.5, 7.5, 7.5, 7.5, 7.5, 7.5, 7.5, 7.5, 7.5, 7.5, 7.5, 7.5, 7.5, 7.5, 7.5, 7.5, 7.5, 7.5, 7.5, 7.5, 17.5"></path><path d="M0 270.1 H 420" stroke="black" fill="none" stroke-width="1" stroke-dasharray="0, 92.5, 7.5, 7.5, 7.5, 7.5, 7.5, 82.5, 7.5, 7.5, 7.5, 7.5, 7.5, 82.5, 7.5, 7.5, 7.5, 7.5, 7.5, 47.5"></path><path d="M0 266.9 H 420" stroke="black" fill="none" stroke-width="0.4" stroke-dasharray="0, 17.5, 7.5, 7.5, 7.5, 7.5, 7.5, 7.5, 7.5, 7.5, 7.5, 7.5, 7.5, 7.5, 7.5, 7.5, 7.5, 7.5, 7.5, 7.5, 7.5, 7.5, 7.5, 7.5, 7.5, 7.5, 7.5, 7.5, 7.5, 7.5, 7.5, 7.5, 7.5, 7.5, 7.5, 7.5, 7.5, 7.5, 7.5, 7.5, 7.5, 7.5, 7.5, 7.5, 7.5, 7.5, 7.5, 7.5, 7.5, 7.5, 7.5, 7.5, 7.5, 17.5"></path><path d="M0 266.9 H 420" stroke="black" fill="none" stroke-width="1" stroke-dasharray="0, 62.5, 7.5, 22.5, 7.5, 22.5, 7.5, 52.5, 7.5, 22.5, 7.5, 7.5, 7.5, 67.5, 7.5, 22.5, 7.5, 7.5, 7.5, 7.5, 7.5, 47.5"></path><path d="M0 266.6 H 420" stroke="black" fill="none" stroke-width="1.6" stroke-dasharray="0, 17.5, 7.5, 112.5, 7.5, 112.5, 7.5, 112.5, 7.5, 7.5, 7.5, 17.5"></path><path d="M0 263.5 H 420" stroke="black" fill="none" stroke-width="9" stroke-dasharray="9, 402"></path><path d="M0 258.5 H 420" stroke="black" fill="none" stroke-width="1" stroke-dasharray="0, 9, 402, 9"></path><path d="M0 260.1 H 420" stroke="black" fill="none" stroke-width="0.4" stroke-dasharray="0, 17.5, 7.5, 7.5, 7.5, 7.5, 7.5, 7.5, 7.5, 7.5, 7.5, 7.5, 7.5, 7.5, 7.5, 7.5, 7.5, 7.5, 7.5, 7.5, 7.5, 7.5, 7.5, 7.5, 7.5, 7.5, 7.5, 7.5, 7.5, 7.5, 7.5, 7.5, 7.5, 7.5, 7.5, 7.5, 7.5, 7.5, 7.5, 7.5, 7.5, 7.5, 7.5, 7.5, 7.5, 7.5, 7.5, 7.5, 7.5, 7.5, 7.5, 7.5, 7.5, 17.5"></path><path d="M0 260.1 H 420" stroke="black" fill="none" stroke-width="1" stroke-dasharray="0, 92.5, 7.5, 7.5, 7.5, 7.5, 7.5, 82.5, 7.5, 7.5, 7.5, 7.5, 7.5, 82.5, 7.5, 7.5, 7.5, 7.5, 7.5, 47.5"></path><path d="M0 256.9 H 420" stroke="black" fill="none" stroke-width="0.4" stroke-dasharray="0, 17.5, 7.5, 7.5, 7.5, 7.5, 7.5, 7.5, 7.5, 7.5, 7.5, 7.5, 7.5, 7.5, 7.5, 7.5, 7.5, 7.5, 7.5, 7.5, 7.5, 7.5, 7.5, 7.5, 7.5, 7.5, 7.5, 7.5, 7.5, 7.5, 7.5, 7.5, 7.5, 7.5, 7.5, 7.5, 7.5, 7.5, 7.5, 7.5, 7.5, 7.5, 7.5, 7.5, 7.5, 7.5, 7.5, 7.5, 7.5, 7.5, 7.5, 7.5, 7.5, 17.5"></path><path d="M0 256.9 H 420" stroke="black" fill="none" stroke-width="1" stroke-dasharray="0, 62.5, 7.5, 7.5, 7.5, 97.5, 7.5, 7.5, 7.5, 37.5, 7.5, 52.5, 7.5, 7.5, 7.5, 22.5, 7.5, 62.5"></path><path d="M0 256.6 H 420" stroke="black" fill="none" stroke-width="1.6" stroke-dasharray="0, 17.5, 7.5, 112.5, 7.5, 112.5, 7.5, 112.5, 7.5, 7.5, 7.5, 17.5"></path><path d="M0 253.5 H 420" stroke="black" fill="none" stroke-width="9" stroke-dasharray="9, 402"></path><path d="M0 248.5 H 420" stroke="black" fill="none" stroke-width="1" stroke-dasharray="0, 9, 402, 9"></path><path d="M0 250.1 H 420" stroke="black" fill="none" stroke-width="0.4" stroke-dasharray="0, 17.5, 7.5, 7.5, 7.5, 7.5, 7.5, 7.5, 7.5, 7.5, 7.5, 7.5, 7.5, 7.5, 7.5, 7.5, 7.5, 7.5, 7.5, 7.5, 7.5, 7.5, 7.5, 7.5, 7.5, 7.5, 7.5, 7.5, 7.5, 7.5, 7.5, 7.5, 7.5, 7.5, 7.5, 7.5, 7.5, 7.5, 7.5, 7.5, 7.5, 7.5, 7.5, 7.5, 7.5, 7.5, 7.5, 7.5, 7.5, 7.5, 7.5, 7.5, 7.5, 17.5"></path><path d="M0 250.1 H 420" stroke="black" fill="none" stroke-width="1" stroke-dasharray="0, 92.5, 7.5, 7.5, 7.5, 7.5, 7.5, 82.5, 7.5, 7.5, 7.5, 7.5, 7.5, 82.5, 7.5, 7.5, 7.5, 7.5, 7.5, 47.5"></path><path d="M0 246.9 H 420" stroke="black" fill="none" stroke-width="0.4" stroke-dasharray="0, 17.5, 7.5, 7.5, 7.5, 7.5, 7.5, 7.5, 7.5, 7.5, 7.5, 7.5, 7.5, 7.5, 7.5, 7.5, 7.5, 7.5, 7.5, 7.5, 7.5, 7.5, 7.5, 7.5, 7.5, 7.5, 7.5, 7.5, 7.5, 7.5, 7.5, 7.5, 7.5, 7.5, 7.5, 7.5, 7.5, 7.5, 7.5, 7.5, 7.5, 7.5, 7.5, 7.5, 7.5, 7.5, 7.5, 7.5, 7.5, 7.5, 7.5, 7.5, 7.5, 17.5"></path><path d="M0 246.9 H 420" stroke="black" fill="none" stroke-width="1" stroke-dasharray="0, 62.5, 7.5, 7.5, 7.5, 22.5, 7.5, 7.5, 7.5, 52.5, 7.5, 7.5, 7.5, 7.5, 7.5, 82.5, 7.5, 7.5, 7.5, 7.5, 7.5, 22.5, 7.5, 47.5"></path><path d="M0 246.6 H 420" stroke="black" fill="none" stroke-width="1.6" stroke-dasharray="0, 17.5, 7.5, 112.5, 7.5, 112.5, 7.5, 112.5, 7.5, 7.5, 7.5, 17.5"></path><path d="M0 243.5 H 420" stroke="black" fill="none" stroke-width="9" stroke-dasharray="9, 402"></path><path d="M0 238.5 H 420" stroke="black" fill="none" stroke-width="1" stroke-dasharray="0, 9, 402, 9"></path><path d="M0 240.1 H 420" stroke="black" fill="none" stroke-width="0.4" stroke-dasharray="0, 17.5, 7.5, 7.5, 7.5, 7.5, 7.5, 7.5, 7.5, 7.5, 7.5, 7.5, 7.5, 7.5, 7.5, 7.5, 7.5, 7.5, 7.5, 7.5, 7.5, 7.5, 7.5, 7.5, 7.5, 7.5, 7.5, 7.5, 7.5, 7.5, 7.5, 7.5, 7.5, 7.5, 7.5, 7.5, 7.5, 7.5, 7.5, 7.5, 7.5, 7.5, 7.5, 7.5, 7.5, 7.5, 7.5, 7.5, 7.5, 7.5, 7.5, 7.5, 7.5, 17.5"></path><path d="M0 240.1 H 420" stroke="black" fill="none" stroke-width="1" stroke-dasharray="0, 92.5, 7.5, 7.5, 7.5, 7.5, 7.5, 82.5, 7.5, 7.5, 7.5, 7.5, 7.5, 82.5, 7.5, 7.5, 7.5, 7.5, 7.5, 47.5"></path><path d="M0 236.9 H 420" stroke="black" fill="none" stroke-width="0.4" stroke-dasharray="0, 17.5, 7.5, 7.5, 7.5, 7.5, 7.5, 7.5, 7.5, 7.5, 7.5, 7.5, 7.5, 7.5, 7.5, 7.5, 7.5, 7.5, 7.5, 7.5, 7.5, 7.5, 7.5, 7.5, 7.5, 7.5, 7.5, 7.5, 7.5, 7.5, 7.5, 7.5, 7.5, 7.5, 7.5, 7.5, 7.5, 7.5, 7.5, 7.5, 7.5, 7.5, 7.5, 7.5, 7.5, 7.5, 7.5, 7.5, 7.5, 7.5, 7.5, 7.5, 7.5, 17.5"></path><path d="M0 236.9 H 420" stroke="black" fill="none" stroke-width="1" stroke-dasharray="0, 62.5, 7.5, 7.5, 7.5, 7.5, 7.5, 7.5, 7.5, 67.5, 7.5, 7.5, 7.5, 7.5, 7.5, 7.5, 7.5, 7.5, 7.5, 37.5, 7.5, 122.5"></path><path d="M0 236.6 H 420" stroke="black" fill="none" stroke-width="1.6" stroke-dasharray="0, 17.5, 7.5, 112.5, 7.5, 112.5, 7.5, 112.5, 7.5, 7.5, 7.5, 17.5"></path><path d="M0 233.5 H 420" stroke="black" fill="none" stroke-width="9" stroke-dasharray="9, 402"></path><path d="M0 228.5 H 420" stroke="black" fill="none" stroke-width="1" stroke-dasharray="0, 9, 402, 9"></path><path d="M0 230.1 H 420" stroke="black" fill="none" stroke-width="0.4" stroke-dasharray="0, 17.5, 7.5, 7.5, 7.5, 7.5, 7.5, 7.5, 7.5, 7.5, 7.5, 7.5, 7.5, 7.5, 7.5, 7.5, 7.5, 7.5, 7.5, 7.5, 7.5, 7.5, 7.5, 7.5, 7.5, 7.5, 7.5, 7.5, 7.5, 7.5, 7.5, 7.5, 7.5, 7.5, 7.5, 7.5, 7.5, 7.5, 7.5, 7.5, 7.5, 7.5, 7.5, 7.5, 7.5, 7.5, 7.5, 7.5, 7.5, 7.5, 7.5, 7.5, 7.5, 17.5"></path><path d="M0 230.1 H 420" stroke="black" fill="none" stroke-width="1" stroke-dasharray="0, 92.5, 7.5, 7.5, 7.5, 7.5, 7.5, 82.5, 7.5, 7.5, 7.5, 7.5, 7.5, 82.5, 7.5, 7.5, 7.5, 7.5, 7.5, 47.5"></path><path d="M0 226.9 H 420" stroke="black" fill="none" stroke-width="0.4" stroke-dasharray="0, 17.5, 7.5, 7.5, 7.5, 7.5, 7.5, 7.5, 7.5, 7.5, 7.5, 7.5, 7.5, 7.5, 7.5, 7.5, 7.5, 7.5, 7.5, 7.5, 7.5, 7.5, 7.5, 7.5, 7.5, 7.5, 7.5, 7.5, 7.5, 7.5, 7.5, 7.5, 7.5, 7.5, 7.5, 7.5, 7.5, 7.5, 7.5, 7.5, 7.5, 7.5, 7.5, 7.5, 7.5, 7.5, 7.5, 7.5, 7.5, 7.5, 7.5, 7.5, 7.5, 17.5"></path><path d="M0 226.9 H 420" stroke="black" fill="none" stroke-width="1" stroke-dasharray="0, 47.5, 7.5, 67.5, 7.5, 37.5, 7.5, 52.5, 7.5, 52.5, 7.5, 52.5, 7.5, 7.5, 7.5, 47.5"></path><path d="M0 226.6 H 420" stroke="black" fill="none" stroke-width="1.6" stroke-dasharray="0, 17.5, 7.5, 112.5, 7.5, 112.5, 7.5, 112.5, 7.5, 7.5, 7.5, 17.5"></path><path d="M0 223.5 H 420" stroke="black" fill="none" stroke-width="9" stroke-dasharray="9, 402"></path></svg>