<svg viewBox="0 0 420 297" xmlns="http://www.w3.org/2000/svg" xmlns:xlink="http://www.w3.org/1999/xlink" width="100%" id="trackId1" tracktype="toTheMiddle"><path d="M0 292 Q 105 292 210 245.5 T 420 199" stroke="black" fill="none" stroke-width="10"></path><path d="M0 282.5 Q 105 282.5 210 236 T 420 189.5" stroke="black" fill="none" stroke-width="9" stroke-dasharray="9, 415.3506164550781"></path><path d="M0 277.5 Q 105 277.5 210 231 T 420 184.5" stroke="black" fill="none" stroke-width="1" stroke-dasharray="0, 9, 415.3506164550781, 9"></path><path d="M0 279.1 Q 105 279.1 210 232.60000000000002 T 420 186.1" stroke="black" fill="none" stroke-width="0.4" stroke-dasharray="0, 16.675308227539062, 7.5, 7.5, 7.5, 7.5, 7.5, 7.5, 7.5, 7.5, 7.5, 7.5, 7.5, 7.5, 7.5, 7.5, 7.5, 7.5, 7.5, 7.5, 7.5, 7.5, 7.5, 7.5, 7.5, 7.5, 7.5, 7.5, 7.5, 7.5, 7.5, 7.5, 7.5, 7.5, 7.5, 7.5, 7.5, 7.5, 7.5, 7.5, 7.5, 7.5, 7.5, 7.5, 7.5, 7.5, 7.5, 7.5, 7.5, 7.5, 7.5, 7.5, 7.5, 7.5, 7.5, 16.675308227539062"></path><path d="M0 279.1 Q 105 279.1 210 232.60000000000002 T 420 186.1" stroke="black" fill="none" stroke-width="1" stroke-dasharray="0, 121.67530822753906, 7.5, 112.5, 7.5, 112.5, 7.5, 61.67530822753906"></path><path d="M0 275.9 Q 105 275.9 210 229.39999999999998 T 420 182.9" stroke="black" fill="none" stroke-width="0.4" stroke-dasharray="0, 16.675308227539062, 7.5, 7.5, 7.5, 7.5, 7.5, 7.5, 7.5, 7.5, 7.5, 7.5, 7.5, 7.5, 7.5, 7.5, 7.5, 7.5, 7.5, 7.5, 7.5, 7.5, 7.5, 7.5, 7.5, 7.5, 7.5, 7.5, 7.5, 7.5, 7.5, 7.5, 7.5, 7.5, 7.5, 7.5, 7.5, 7.5, 7.5, 7.5, 7.5, 7.5, 7.5, 7.5, 7.5, 7.5, 7.5, 7.5, 7.5, 7.5, 7.5, 7.5, 7.5, 7.5, 7.5, 16.675308227539062"></path><path d="M0 275.9 Q 105 275.9 210 229.39999999999998 T 420 182.9" stroke="black" fill="none" stroke-width="1" stroke-dasharray="0, 121.67530822753906, 7.5, 97.5, 7.5, 112.5, 7.5, 7.5, 7.5, 61.67530822753906"></path><path d="M0 275.6 Q 105 275.6 210 229.10000000000002 T 420 182.6" stroke="black" fill="none" stroke-width="1.6" stroke-dasharray="0, 16.675308227539062, 7.5, 112.5, 7.5, 112.5, 7.5, 112.5, 7.5, 7.5, 7.5, 7.5, 7.5, 16.675308227539062"></path><path d="M0 272.5 Q 105 272.5 210 226 T 420 179.5" stroke="black" fill="none" stroke-width="9" stroke-dasharray="9, 415.3506164550781"></path><path d="M0 267.5 Q 105 267.5 210 221 T 420 174.5" stroke="black" fill="none" stroke-width="1" stroke-dasharray="0, 9, 415.3506164550781, 9"></path><path d="M0 269.1 Q 105 269.1 210 222.60000000000002 T 420 176.1" stroke="black" fill="none" stroke-width="0.4" stroke-dasharray="0, 16.675308227539062, 7.5, 7.5, 7.5, 7.5, 7.5, 7.5, 7.5, 7.5, 7.5, 7.5, 7.5, 7.5, 7.5, 7.5, 7.5, 7.5, 7.5, 7.5, 7.5, 7.5, 7.5, 7.5, 7.5, 7.5, 7.5, 7.5, 7.5, 7.5, 7.5, 7.5, 7.5, 7.5, 7.5, 7.5, 7.5, 7.5, 7.5, 7.5, 7.5, 7.5, 7.5, 7.5, 7.5, 7.5, 7.5, 7.5, 7.5, 7.5, 7.5, 7.5, 7.5, 7.5, 7.5, 16.675308227539062"></path><path d="M0 269.1 Q 105 269.1 210 222.60000000000002 T 420 176.1" stroke="black" fill="none" stroke-width="1" stroke-dasharray="0, 121.67530822753906, 7.5, 112.5, 7.5, 112.5, 7.5, 61.67530822753906"></path><path d="M0 265.9 Q 105 265.9 210 219.39999999999998 T 420 172.9" stroke="black" fill="none" stroke-width="0.4" stroke-dasharray="0, 16.675308227539062, 7.5, 7.5, 7.5, 7.5, 7.5, 7.5, 7.5, 7.5, 7.5, 7.5, 7.5, 7.5, 7.5, 7.5, 7.5, 7.5, 7.5, 7.5, 7.5, 7.5, 7.5, 7.5, 7.5, 7.5, 7.5, 7.5, 7.5, 7.5, 7.5, 7.5, 7.5, 7.5, 7.5, 7.5, 7.5, 7.5, 7.5, 7.5, 7.5, 7.5, 7.5, 7.5, 7.5, 7.5, 7.5, 7.5, 7.5, 7.5, 7.5, 7.5, 7.5, 7.5, 7.5, 16.675308227539062"></path><path d="M0 265.9 Q 105 265.9 210 219.39999999999998 T 420 172.9" stroke="black" fill="none" stroke-width="1" stroke-dasharray="0, 91.67530822753906, 7.5, 112.5, 7.5, 22.5, 7.5, 82.5, 7.5, 7.5, 7.5, 76.67530822753906"></path><path d="M0 265.6 Q 105 265.6 210 219.10000000000002 T 420 172.6" stroke="black" fill="none" stroke-width="1.6" stroke-dasharray="0, 16.675308227539062, 7.5, 112.5, 7.5, 112.5, 7.5, 112.5, 7.5, 7.5, 7.5, 7.5, 7.5, 16.675308227539062"></path><path d="M0 262.5 Q 105 262.5 210 216 T 420 169.5" stroke="black" fill="none" stroke-width="9" stroke-dasharray="9, 415.3506164550781"></path><path d="M0 257.5 Q 105 257.5 210 211 T 420 164.5" stroke="black" fill="none" stroke-width="1" stroke-dasharray="0, 9, 415.3506164550781, 9"></path><path d="M0 259.1 Q 105 259.1 210 212.60000000000002 T 420 166.1" stroke="black" fill="none" stroke-width="0.4" stroke-dasharray="0, 16.675308227539062, 7.5, 7.5, 7.5, 7.5, 7.5, 7.5, 7.5, 7.5, 7.5, 7.5, 7.5, 7.5, 7.5, 7.5, 7.5, 7.5, 7.5, 7.5, 7.5, 7.5, 7.5, 7.5, 7.5, 7.5, 7.5, 7.5, 7.5, 7.5, 7.5, 7.5, 7.5, 7.5, 7.5, 7.5, 7.5, 7.5, 7.5, 7.5, 7.5, 7.5, 7.5, 7.5, 7.5, 7.5, 7.5, 7.5, 7.5, 7.5, 7.5, 7.5, 7.5, 7.5, 7.5, 16.675308227539062"></path><path d="M0 259.1 Q 105 259.1 210 212.60000000000002 T 420 166.1" stroke="black" fill="none" stroke-width="1" stroke-dasharray="0, 121.67530822753906, 7.5, 112.5, 7.5, 112.5, 7.5, 61.67530822753906"></path><path d="M0 255.9 Q 105 255.9 210 209.4 T 420 162.9" stroke="black" fill="none" stroke-width="0.4" stroke-dasharray="0, 16.675308227539062, 7.5, 7.5, 7.5, 7.5, 7.5, 7.5, 7.5, 7.5, 7.5, 7.5, 7.5, 7.5, 7.5, 7.5, 7.5, 7.5, 7.5, 7.5, 7.5, 7.5, 7.5, 7.5, 7.5, 7.5, 7.5, 7.5, 7.5, 7.5, 7.5, 7.5, 7.5, 7.5, 7.5, 7.5, 7.5, 7.5, 7.5, 7.5, 7.5, 7.5, 7.5, 7.5, 7.5, 7.5, 7.5, 7.5, 7.5, 7.5, 7.5, 7.5, 7.5, 7.5, 7.5, 16.675308227539062"></path><path d="M0 255.9 Q 105 255.9 210 209.4 T 420 162.9" stroke="black" fill="none" stroke-width="1" stroke-dasharray="0, 91.67530822753906, 7.5, 7.5, 7.5, 7.5, 7.5, 67.5, 7.5, 112.5, 7.5, 37.5, 7.5, 61.67530822753906"></path><path d="M0 255.6 Q 105 255.6 210 209.1 T 420 162.6" stroke="black" fill="none" stroke-width="1.6" stroke-dasharray="0, 16.675308227539062, 7.5, 112.5, 7.5, 112.5, 7.5, 112.5, 7.5, 7.5, 7.5, 7.5, 7.5, 16.675308227539062"></path><path d="M0 252.5 Q 105 252.5 210 206 T 420 159.5" stroke="black" fill="none" stroke-width="9" stroke-dasharray="9, 415.3506164550781"></path><path d="M0 247.5 Q 105 247.5 210 201 T 420 154.5" stroke="black" fill="none" stroke-width="1" stroke-dasharray="0, 9, 415.3506164550781, 9"></path><path d="M0 249.1 Q 105 249.1 210 202.6 T 420 156.1" stroke="black" fill="none" stroke-width="0.4" stroke-dasharray="0, 16.675308227539062, 7.5, 7.5, 7.5, 7.5, 7.5, 7.5, 7.5, 7.5, 7.5, 7.5, 7.5, 7.5, 7.5, 7.5, 7.5, 7.5, 7.5, 7.5, 7.5, 7.5, 7.5, 7.5, 7.5, 7.5, 7.5, 7.5, 7.5, 7.5, 7.5, 7.5, 7.5, 7.5, 7.5, 7.5, 7.5, 7.5, 7.5, 7.5, 7.5, 7.5, 7.5, 7.5, 7.5, 7.5, 7.5, 7.5, 7.5, 7.5, 7.5, 7.5, 7.5, 7.5, 7.5, 16.675308227539062"></path><path d="M0 249.1 Q 105 249.1 210 202.6 T 420 156.1" stroke="black" fill="none" stroke-width="1" stroke-dasharray="0, 121.67530822753906, 7.5, 112.5, 7.5, 112.5, 7.5, 61.67530822753906"></path><path d="M0 245.9 Q 105 245.9 210 199.4 T 420 152.9" stroke="black" fill="none" stroke-width="0.4" stroke-dasharray="0, 16.675308227539062, 7.5, 7.5, 7.5, 7.5, 7.5, 7.5, 7.5, 7.5, 7.5, 7.5, 7.5, 7.5, 7.5, 7.5, 7.5, 7.5, 7.5, 7.5, 7.5, 7.5, 7.5, 7.5, 7.5, 7.5, 7.5, 7.5, 7.5, 7.5, 7.5, 7.5, 7.5, 7.5, 7.5, 7.5, 7.5, 7.5, 7.5, 7.5, 7.5, 7.5, 7.5, 7.5, 7.5, 7.5, 7.5, 7.5, 7.5, 7.5, 7.5, 7.5, 7.5, 7.5, 7.5, 16.675308227539062"></path><path d="M0 245.9 Q 105 245.9 210 199.4 T 420 152.9" stroke="black" fill="none" stroke-width="1" stroke-dasharray="0, 76.67530822753906, 7.5, 22.5, 7.5, 82.5, 7.5, 22.5, 7.5, 7.5, 7.5, 67.5, 7.5, 7.5, 7.5, 91.67530822753906"></path><path d="M0 245.6 Q 105 245.6 210 199.1 T 420 152.6" stroke="black" fill="none" stroke-width="1.6" stroke-dasharray="0, 16.675308227539062, 7.5, 112.5, 7.5, 112.5, 7.5, 112.5, 7.5, 7.5, 7.5, 7.5, 7.5, 16.675308227539062"></path><path d="M0 242.5 Q 105 242.5 210 196 T 420 149.5" stroke="black" fill="none" stroke-width="9" stroke-dasharray="9, 415.3506164550781"></path><path d="M0 237.5 Q 105 237.5 210 191 T 420 144.5" stroke="black" fill="none" stroke-width="1" stroke-dasharray="0, 9, 415.3506164550781, 9"></path><path d="M0 239.1 Q 105 239.1 210 192.6 T 420 146.1" stroke="black" fill="none" stroke-width="0.4" stroke-dasharray="0, 16.675308227539062, 7.5, 7.5, 7.5, 7.5, 7.5, 7.5, 7.5, 7.5, 7.5, 7.5, 7.5, 7.5, 7.5, 7.5, 7.5, 7.5, 7.5, 7.5, 7.5, 7.5, 7.5, 7.5, 7.5, 7.5, 7.5, 7.5, 7.5, 7.5, 7.5, 7.5, 7.5, 7.5, 7.5, 7.5, 7.5, 7.5, 7.5, 7.5, 7.5, 7.5, 7.5, 7.5, 7.5, 7.5, 7.5, 7.5, 7.5, 7.5, 7.5, 7.5, 7.5, 7.5, 7.5, 16.675308227539062"></path><path d="M0 239.1 Q 105 239.1 210 192.6 T 420 146.1" stroke="black" fill="none" stroke-width="1" stroke-dasharray="0, 121.67530822753906, 7.5, 112.5, 7.5, 112.5, 7.5, 61.67530822753906"></path><path d="M0 235.9 Q 105 235.9 210 189.4 T 420 142.9" stroke="black" fill="none" stroke-width="0.4" stroke-dasharray="0, 16.675308227539062, 7.5, 7.5, 7.5, 7.5, 7.5, 7.5, 7.5, 7.5, 7.5, 7.5, 7.5, 7.5, 7.5, 7.5, 7.5, 7.5, 7.5, 7.5, 7.5, 7.5, 7.5, 7.5, 7.5, 7.5, 7.5, 7.5, 7.5, 7.5, 7.5, 7.5, 7.5, 7.5, 7.5, 7.5, 7.5, 7.5, 7.5, 7.5, 7.5, 7.5, 7.5, 7.5, 7.5, 7.5, 7.5, 7.5, 7.5, 7.5, 7.5, 7.5, 7.5, 7.5, 7.5, 16.675308227539062"></path><path d="M0 235.9 Q 105 235.9 210 189.4 T 420 142.9" stroke="black" fill="none" stroke-width="1" stroke-dasharray="0, 76.67530822753906, 7.5, 7.5, 7.5, 22.5, 7.5, 67.5, 7.5, 7.5, 7.5, 7.5, 7.5, 82.5, 7.5, 7.5, 7.5, 7.5, 7.5, 7.5, 7.5, 61.67530822753906"></path><path d="M0 235.6 Q 105 235.6 210 189.1 T 420 142.6" stroke="black" fill="none" stroke-width="1.6" stroke-dasharray="0, 16.675308227539062, 7.5, 112.5, 7.5, 112.5, 7.5, 112.5, 7.5, 7.5, 7.5, 7.5, 7.5, 16.675308227539062"></path><path d="M0 232.5 Q 105 232.5 210 186 T 420 139.5" stroke="black" fill="none" stroke-width="9" stroke-dasharray="9, 415.3506164550781"></path><path d="M0 227.5 Q 105 227.5 210 181 T 420 134.5" stroke="black" fill="none" stroke-width="1" stroke-dasharray="0, 9, 415.3506164550781, 9"></path><path d="M0 229.1 Q 105 229.1 210 182.6 T 420 136.1" stroke="black" fill="none" stroke-width="0.4" stroke-dasharray="0, 16.675308227539062, 7.5, 7.5, 7.5, 7.5, 7.5, 7.5, 7.5, 7.5, 7.5, 7.5, 7.5, 7.5, 7.5, 7.5, 7.5, 7.5, 7.5, 7.5, 7.5, 7.5, 7.5, 7.5, 7.5, 7.5, 7.5, 7.5, 7.5, 7.5, 7.5, 7.5, 7.5, 7.5, 7.5, 7.5, 7.5, 7.5, 7.5, 7.5, 7.5, 7.5, 7.5, 7.5, 7.5, 7.5, 7.5, 7.5, 7.5, 7.5, 7.5, 7.5, 7.5, 7.5, 7.5, 16.675308227539062"></path><path d="M0 229.1 Q 105 229.1 210 182.6 T 420 136.1" stroke="black" fill="none" stroke-width="1" stroke-dasharray="0, 121.67530822753906, 7.5, 112.5, 7.5, 112.5, 7.5, 61.67530822753906"></path><path d="M0 225.9 Q 105 225.9 210 179.4 T 420 132.9" stroke="black" fill="none" stroke-width="0.4" stroke-dasharray="0, 16.675308227539062, 7.5, 7.5, 7.5, 7.5, 7.5, 7.5, 7.5, 7.5, 7.5, 7.5, 7.5, 7.5, 7.5, 7.5, 7.5, 7.5, 7.5, 7.5, 7.5, 7.5, 7.5, 7.5, 7.5, 7.5, 7.5, 7.5, 7.5, 7.5, 7.5, 7.5, 7.5, 7.5, 7.5, 7.5, 7.5, 7.5, 7.5, 7.5, 7.5, 7.5, 7.5, 7.5, 7.5, 7.5, 7.5, 7.5, 7.5, 7.5, 7.5, 7.5, 7.5, 7.5, 7.5, 16.675308227539062"></path><path d="M0 225.9 Q 105 225.9 210 179.4 T 420 132.9" stroke="black" fill="none" stroke-width="1" stroke-dasharray="0, 61.67530822753906, 7.5, 112.5, 7.5, 52.5, 7.5, 52.5, 7.5, 37.5, 7.5, 76.67530822753906"></path><path d="M0 225.6 Q 105 225.6 210 179.1 T 420 132.6" stroke="black" fill="none" stroke-width="1.6" stroke-dasharray="0, 16.675308227539062, 7.5, 112.5, 7.5, 112.5, 7.5, 112.5, 7.5, 7.5, 7.5, 7.5, 7.5, 16.675308227539062"></path><path d="M0 222.5 Q 105 222.5 210 176 T 420 129.5" stroke="black" fill="none" stroke-width="9" stroke-dasharray="9, 415.3506164550781"></path><path d="M0 217.5 Q 105 217.5 210 171 T 420 124.5" stroke="black" fill="none" stroke-width="1" stroke-dasharray="0, 9, 415.3505554199219, 9"></path><path d="M0 219.1 Q 105 219.1 210 172.6 T 420 126.1" stroke="black" fill="none" stroke-width="0.4" stroke-dasharray="0, 16.675247192382812, 7.5, 7.5, 7.5, 7.5, 7.5, 7.5, 7.5, 7.5, 7.5, 7.5, 7.5, 7.5, 7.5, 7.5, 7.5, 7.5, 7.5, 7.5, 7.5, 7.5, 7.5, 7.5, 7.5, 7.5, 7.5, 7.5, 7.5, 7.5, 7.5, 7.5, 7.5, 7.5, 7.5, 7.5, 7.5, 7.5, 7.5, 7.5, 7.5, 7.5, 7.5, 7.5, 7.5, 7.5, 7.5, 7.5, 7.5, 7.5, 7.5, 7.5, 7.5, 7.5, 7.5, 16.675247192382812"></path><path d="M0 219.1 Q 105 219.1 210 172.6 T 420 126.1" stroke="black" fill="none" stroke-width="1" stroke-dasharray="0, 121.67524719238281, 7.5, 112.5, 7.5, 112.5, 7.5, 61.67524719238281"></path><path d="M0 215.9 Q 105 215.9 210 169.4 T 420 122.9" stroke="black" fill="none" stroke-width="0.4" stroke-dasharray="0, 16.675245012555802, 7.5, 7.499997820172991, 7.5, 7.499997820172991, 7.5, 7.499997820172991, 7.5, 7.499997820172991, 7.5, 7.499997820172991, 7.5, 7.499997820172991, 7.5, 7.499997820172991, 7.5, 7.499997820172991, 7.5, 7.499997820172991, 7.5, 7.499997820172991, 7.5, 7.499997820172991, 7.5, 7.499997820172991, 7.5, 7.499997820172991, 7.5, 7.499997820172991, 7.5, 7.499997820172991, 7.5, 7.499997820172991, 7.5, 7.499997820172991, 7.5, 7.499997820172991, 7.5, 7.499997820172991, 7.5, 7.499997820172991, 7.5, 7.499997820172991, 7.5, 7.499997820172991, 7.5, 7.499997820172991, 7.5, 7.499997820172991, 7.5, 7.499997820172991, 7.5, 7.499997820172991, 7.5, 16.675245012555802"></path><path d="M0 215.9 Q 105 215.9 210 169.4 T 420 122.9" stroke="black" fill="none" stroke-width="1" stroke-dasharray="0, 61.67523847307478, 7.5, 37.49999346051897, 7.5, 7.499997820172991, 7.5, 52.499991280691965, 7.5, 22.499995640345983, 7.5, 82.49998692103794, 7.5, 22.499995640345983, 7.5, 22.499995640345983, 7.5, 61.67523847307477"></path><path d="M0 215.6 Q 105 215.6 210 169.1 T 420 122.6" stroke="black" fill="none" stroke-width="1.6" stroke-dasharray="0, 16.675245012555802, 7.5, 112.49998256138393, 7.5, 112.49998256138393, 7.5, 112.49998256138393, 7.5, 7.499997820172991, 7.5, 7.499997820172991, 7.5, 16.675245012555802"></path><path d="M0 212.5 Q 105 212.5 210 166 T 420 119.5" stroke="black" fill="none" stroke-width="9" stroke-dasharray="9, 415.3504943847656"></path><path d="M0 207.5 Q 105 207.5 210 161 T 420 114.5" stroke="black" fill="none" stroke-width="1" stroke-dasharray="0, 9, 415.3504333496094, 9"></path><path d="M0 209.1 Q 105 209.1 210 162.6 T 420 116.1" stroke="black" fill="none" stroke-width="0.4" stroke-dasharray="0, 16.675277709960938, 7.5, 7.5, 7.5, 7.5, 7.5, 7.5, 7.5, 7.5, 7.5, 7.5, 7.5, 7.5, 7.5, 7.5, 7.5, 7.5, 7.5, 7.5, 7.5, 7.5, 7.5, 7.5, 7.5, 7.5, 7.5, 7.5, 7.5, 7.5, 7.5, 7.5, 7.5, 7.5, 7.5, 7.5, 7.5, 7.5, 7.5, 7.5, 7.5, 7.5, 7.5, 7.5, 7.5, 7.5, 7.5, 7.5, 7.5, 7.5, 7.5, 7.5, 7.5, 7.5, 7.5, 16.675277709960938"></path><path d="M0 209.1 Q 105 209.1 210 162.6 T 420 116.1" stroke="black" fill="none" stroke-width="1" stroke-dasharray="0, 121.67527770996094, 7.5, 112.5, 7.5, 112.5, 7.5, 61.67527770996094"></path><path d="M0 205.9 Q 105 205.9 210 159.4 T 420 112.9" stroke="black" fill="none" stroke-width="0.4" stroke-dasharray="0, 16.675276620047434, 7.5, 7.499998910086496, 7.5, 7.499998910086496, 7.5, 7.499998910086496, 7.5, 7.499998910086496, 7.5, 7.499998910086496, 7.5, 7.499998910086496, 7.5, 7.499998910086496, 7.5, 7.499998910086496, 7.5, 7.499998910086496, 7.5, 7.499998910086496, 7.5, 7.499998910086496, 7.5, 7.499998910086496, 7.5, 7.499998910086496, 7.5, 7.499998910086496, 7.5, 7.499998910086496, 7.5, 7.499998910086496, 7.5, 7.499998910086496, 7.5, 7.499998910086496, 7.5, 7.499998910086496, 7.5, 7.499998910086496, 7.5, 7.499998910086496, 7.5, 7.499998910086496, 7.5, 7.499998910086496, 7.5, 7.499998910086496, 7.5, 7.499998910086496, 7.5, 7.499998910086496, 7.5, 16.675276620047434"></path><path d="M0 205.9 Q 105 205.9 210 159.4 T 420 112.9" stroke="black" fill="none" stroke-width="1" stroke-dasharray="0, 61.675273350306924, 7.5, 22.499997820172993, 7.5, 7.499998910086496, 7.5, 67.49999455043248, 7.5, 22.499997820172993, 7.5, 7.499998910086496, 7.5, 7.499998910086496, 7.5, 52.499995640345986, 7.5, 7.499998910086496, 7.5, 106.6752700805664"></path><path d="M0 205.6 Q 105 205.6 210 159.1 T 420 112.6" stroke="black" fill="none" stroke-width="1.6" stroke-dasharray="0, 16.67527553013393, 7.5, 112.49998256138393, 7.5, 112.49998256138393, 7.5, 112.49998256138393, 7.5, 7.499997820172991, 7.5, 7.499997820172991, 7.5, 16.67527553013393"></path><path d="M0 202.5 Q 105 202.5 210 156 T 420 109.5" stroke="black" fill="none" stroke-width="9" stroke-dasharray="9, 415.35040283203125"></path><path d="M0 197.5 Q 105 197.5 210 151 T 420 104.5" stroke="black" fill="none" stroke-width="1" stroke-dasharray="0, 9, 415.3504333496094, 9"></path><path d="M0 199.1 Q 105 199.1 210 152.6 T 420 106.1" stroke="black" fill="none" stroke-width="0.4" stroke-dasharray="0, 16.675216674804688, 7.5, 7.5, 7.5, 7.5, 7.5, 7.5, 7.5, 7.5, 7.5, 7.5, 7.5, 7.5, 7.5, 7.5, 7.5, 7.5, 7.5, 7.5, 7.5, 7.5, 7.5, 7.5, 7.5, 7.5, 7.5, 7.5, 7.5, 7.5, 7.5, 7.5, 7.5, 7.5, 7.5, 7.5, 7.5, 7.5, 7.5, 7.5, 7.5, 7.5, 7.5, 7.5, 7.5, 7.5, 7.5, 7.5, 7.5, 7.5, 7.5, 7.5, 7.5, 7.5, 7.5, 16.675216674804688"></path><path d="M0 199.1 Q 105 199.1 210 152.6 T 420 106.1" stroke="black" fill="none" stroke-width="1" stroke-dasharray="0, 121.67521667480469, 7.5, 112.5, 7.5, 112.5, 7.5, 61.67521667480469"></path><path d="M0 195.9 Q 105 195.9 210 149.4 T 420 102.9" stroke="black" fill="none" stroke-width="0.4" stroke-dasharray="0, 16.675216674804688, 7.5, 7.5, 7.5, 7.5, 7.5, 7.5, 7.5, 7.5, 7.5, 7.5, 7.5, 7.5, 7.5, 7.5, 7.5, 7.5, 7.5, 7.5, 7.5, 7.5, 7.5, 7.5, 7.5, 7.5, 7.5, 7.5, 7.5, 7.5, 7.5, 7.5, 7.5, 7.5, 7.5, 7.5, 7.5, 7.5, 7.5, 7.5, 7.5, 7.5, 7.5, 7.5, 7.5, 7.5, 7.5, 7.5, 7.5, 7.5, 7.5, 7.5, 7.5, 7.5, 7.5, 16.675216674804688"></path><path d="M0 195.9 Q 105 195.9 210 149.4 T 420 102.9" stroke="black" fill="none" stroke-width="1" stroke-dasharray="0, 61.67521667480469, 7.5, 7.5, 7.5, 37.5, 7.5, 52.5, 7.5, 7.5, 7.5, 22.5, 7.5, 67.5, 7.5, 7.5, 7.5, 22.5, 7.5, 7.5, 7.5, 61.67521667480469"></path><path d="M0 195.6 Q 105 195.6 210 149.1 T 420 102.6" stroke="black" fill="none" stroke-width="1.6" stroke-dasharray="0, 16.675216674804688, 7.5, 112.5, 7.5, 112.5, 7.5, 112.5, 7.5, 7.5, 7.5, 7.5, 7.5, 16.675216674804688"></path><path d="M0 192.5 Q 105 192.5 210 146 T 420 99.5" stroke="black" fill="none" stroke-width="9" stroke-dasharray="9, 415.3504333496094"></path><path d="M0 183 Q 105 183 210 136.5 T 420 90" stroke="black" fill="none" stroke-width="10"></path></svg>