<svg version="1.1" id="Layer_1" xmlns="http://www.w3.org/2000/svg" xmlns:xlink="http://www.w3.org/1999/xlink" x="0px" y="0px" width="122px" height="138px" viewBox="0 0 122 138" enable-background="new 0 0 122 138" xml:space="preserve">
<g id="de">
	<g>
		<path fill="none" d="M30.231,113.085c-0.776,0-1.258,0.401-1.352,2.009h2.664C31.543,113.553,31.193,113.085,30.231,113.085z"/>
		<path fill="none" d="M37.088,129.127c-1.017,0-1.499,0.536-1.499,2.609c0,2.06,0.496,2.623,1.512,2.623    c1.018,0,1.499-0.547,1.499-2.609C38.601,129.678,38.105,129.127,37.088,129.127z"/>
		<path fill="none" d="M10.448,113.085c-0.777,0-1.258,0.401-1.353,2.009h2.664C11.759,113.553,11.411,113.085,10.448,113.085z"/>
		<path fill="none" d="M4.069,112.322c0-0.963-0.307-1.457-1.391-1.457H1.219v2.877h1.525    C3.828,113.741,4.069,113.287,4.069,112.322z"/>
		<path fill="none" d="M7.244,133.184c0,0.881,0.282,1.176,0.938,1.176c0.655,0,1.15-0.439,1.471-0.801v-1.783h-0.4    C7.565,131.775,7.244,132.205,7.244,133.184z"/>
		<path fill="none" d="M2.784,114.786H1.232v3.237H2.73c1.285,0,1.74-0.494,1.74-1.619C4.47,115.294,4.056,114.786,2.784,114.786z"/>
		<path fill="none" d="M89.758,129.127c-0.775,0-1.256,0.402-1.351,2.008h2.663C91.07,129.596,90.723,129.127,89.758,129.127z"/>
		<path fill="#697D91" d="M46.869,47.524c-0.016-0.007-0.258-0.084-0.258-0.391c0-0.168,0.099-0.299,0.235-0.385    c6.964-4.369,11.269-12.428,11.269-21.714C58.115,11.206,46.904,0,33.08,0H3.474C1.555,0-0.001,1.554-0.001,3.474V92.52    c0,1.916,1.556,3.476,3.475,3.476L36.534,96c13.825,0,25.038-11.208,25.038-25.039C61.573,60.246,55.904,51.021,46.869,47.524z     M33.771,78.178c0,0.441-0.378,0.818-0.819,0.818h-1.26c-0.44,0-0.818-0.377-0.818-0.818v-8.631h-7.816v8.631    c0,0.441-0.378,0.818-0.818,0.818h-1.264c-0.441,0-0.819-0.377-0.819-0.818V58.103c0-0.442,0.378-0.819,0.819-0.819h1.264    c0.44,0,0.818,0.377,0.818,0.819v8.893h7.816v-8.893c0-0.442,0.377-0.819,0.818-0.819h1.26c0.441,0,0.819,0.377,0.819,0.819    V78.178z M33.789,18.584c0,0.441-0.378,0.819-0.82,0.819h-9.995v6.979h8.514c0.441,0,0.819,0.381,0.819,0.823v0.851    c0,0.44-0.377,0.819-0.819,0.819h-8.514v8.938c0,0.442-0.378,0.823-0.819,0.823h-1.259c-0.441,0-0.823-0.381-0.823-0.823V17.734    c0-0.441,0.382-0.819,0.823-0.819h12.073c0.441,0,0.82,0.378,0.82,0.819V18.584z"/>
		<path fill="#697D91" d="M4.243,114.156c0.883-0.375,1.124-0.896,1.124-1.859c0-1.445-0.709-2.463-2.65-2.463H0.349    c-0.187,0-0.349,0.163-0.349,0.35v8.523c0,0.188,0.162,0.348,0.349,0.348h2.516c1.712,0,2.917-0.75,2.917-2.582    C5.782,115.105,5.139,114.41,4.243,114.156z M1.219,110.863h1.459c1.084,0,1.391,0.496,1.391,1.459    c0,0.964-0.241,1.418-1.325,1.418H1.219V110.863z M2.731,118.023H1.232v-3.237h1.551c1.272,0,1.687,0.509,1.687,1.618    C4.47,117.529,4.016,118.023,2.731,118.023z"/>
		<path fill="#697D91" d="M10.475,112.176c-1.58,0-2.624,0.977-2.624,3.52c0,2.521,0.991,3.533,2.743,3.533    c0.843,0,1.406-0.174,1.955-0.562c0.159-0.106,0.187-0.334,0.079-0.483l-0.214-0.277c-0.106-0.146-0.334-0.188-0.495-0.066    c-0.348,0.242-0.722,0.415-1.298,0.415c-1.11,0-1.512-0.456-1.539-2.289h3.68c0.12,0,0.214-0.093,0.214-0.212v-0.24    C12.976,113.085,12.066,112.176,10.475,112.176z M9.095,115.094c0.095-1.607,0.576-2.009,1.353-2.009    c0.963,0,1.311,0.468,1.311,2.009H9.095z"/>
		<path fill="#697D91" d="M18.276,112.229c-0.776,0-1.392,0.455-1.886,1.069l-0.121-0.601c-0.041-0.202-0.214-0.348-0.416-0.348    h-0.199c-0.188,0-0.349,0.157-0.349,0.348v6.009c0,0.188,0.162,0.349,0.349,0.349h0.455c0.188,0,0.348-0.16,0.348-0.349v-4.578    c0.494-0.453,0.909-0.681,1.525-0.681c0.067,0,0.146,0,0.214,0.014c0.107,0.014,0.201-0.068,0.213-0.163l0.094-0.937    c0.013-0.053-0.04-0.105-0.094-0.12C18.371,112.229,18.317,112.229,18.276,112.229z"/>
		<path fill="#697D91" d="M23.686,112.176c-0.79,0-1.457,0.416-2.047,1.002l-0.106-0.494c-0.041-0.188-0.214-0.334-0.416-0.334h-0.2    c-0.187,0-0.349,0.16-0.349,0.351v6.009c0,0.188,0.162,0.352,0.349,0.352h0.456c0.187,0,0.347-0.16,0.347-0.352v-4.71    c0.481-0.433,1.084-0.806,1.619-0.806c0.604,0,0.817,0.217,0.817,0.979v4.537c0,0.188,0.161,0.351,0.347,0.351h0.456    c0.188,0,0.348-0.16,0.348-0.351v-4.896C25.306,112.67,24.649,112.176,23.686,112.176z"/>
		<path fill="#697D91" d="M30.257,112.176c-1.579,0-2.623,0.977-2.623,3.52c0,2.521,0.991,3.533,2.744,3.533    c0.843,0,1.405-0.174,1.953-0.562c0.161-0.106,0.188-0.334,0.082-0.483l-0.214-0.277c-0.108-0.146-0.334-0.188-0.496-0.066    c-0.348,0.242-0.722,0.415-1.297,0.415c-1.111,0-1.512-0.456-1.54-2.289h3.681c0.12,0,0.214-0.093,0.214-0.212v-0.24    C32.76,113.085,31.85,112.176,30.257,112.176z M28.879,115.094c0.094-1.607,0.576-2.009,1.352-2.009    c0.962,0,1.312,0.468,1.312,2.009H28.879z"/>
		<path fill="#697D91" d="M35.894,119.055c0.188,0,0.348-0.16,0.348-0.349v-4.578c0.495-0.453,0.91-0.681,1.526-0.681    c0.067,0,0.146,0,0.214,0.014c0.106,0.014,0.201-0.068,0.214-0.163l0.093-0.937c0.013-0.053-0.039-0.105-0.093-0.12    c-0.041-0.015-0.095-0.015-0.135-0.015c-0.776,0-1.391,0.457-1.887,1.067l-0.12-0.604c-0.041-0.198-0.214-0.346-0.415-0.346h-0.2    c-0.187,0-0.348,0.159-0.348,0.346v6.013c0,0.188,0.161,0.348,0.348,0.348h0.455V119.055z"/>
		<path fill="#697D91" d="M4.24,125.875H0.346c-0.187,0-0.347,0.163-0.347,0.35v8.522c0,0.188,0.16,0.349,0.347,0.349h0.536    c0.187,0,0.347-0.16,0.347-0.349v-3.959H3.61c0.188,0,0.35-0.163,0.35-0.349v-0.361c0-0.188-0.162-0.35-0.35-0.35H1.229v-2.795    H4.24c0.188,0,0.348-0.162,0.348-0.352v-0.357C4.588,126.038,4.427,125.875,4.24,125.875z"/>
		<path fill="#697D91" d="M8.81,128.219c-0.909,0-1.605,0.24-2.208,0.562c-0.173,0.094-0.241,0.308-0.16,0.48l0.134,0.254    c0.08,0.172,0.293,0.239,0.468,0.162c0.508-0.256,1.07-0.457,1.646-0.457c0.869,0,0.963,0.457,0.963,1.204v0.521H9.105    c-2.196,0-3.092,0.709-3.092,2.236c0,1.377,0.737,2.086,2.021,2.086c0.735,0,1.297-0.416,1.686-0.846l0.093,0.336    c0.055,0.199,0.24,0.334,0.441,0.334h0.2c0.188,0,0.349-0.158,0.349-0.349v-4.513C10.804,128.807,10.122,128.219,8.81,128.219z     M9.652,133.559c-0.321,0.358-0.815,0.801-1.471,0.801c-0.656,0-0.938-0.293-0.938-1.176c0-0.979,0.322-1.408,2.008-1.408h0.4    L9.652,133.559L9.652,133.559z"/>
		<path fill="#697D91" d="M17.337,133.945c-0.121-0.149-0.349-0.16-0.495-0.041c-0.281,0.229-0.563,0.389-0.978,0.389    c-1.069,0-1.499-0.497-1.499-2.557c0-2.104,0.389-2.541,1.405-2.541c0.441,0,0.721,0.117,1.017,0.348    c0.146,0.12,0.361,0.105,0.494-0.041l0.214-0.27c0.121-0.146,0.108-0.36-0.054-0.48c-0.481-0.391-0.99-0.535-1.632-0.535    c-1.659,0-2.676,0.963-2.676,3.518c0,2.41,0.951,3.535,2.663,3.535c0.763,0,1.312-0.201,1.753-0.59    c0.147-0.119,0.16-0.348,0.027-0.479L17.337,133.945z"/>
		<path fill="#697D91" d="M22.986,128.219c-0.775,0-1.378,0.374-1.967,0.924v-3.387c0-0.188-0.161-0.348-0.348-0.348h-0.455    c-0.187,0-0.347,0.162-0.347,0.348v8.992c0,0.188,0.16,0.348,0.347,0.348h0.455c0.187,0,0.348-0.16,0.348-0.348v-4.71    c0.481-0.429,1.085-0.804,1.619-0.804c0.604,0,0.816,0.216,0.816,0.979v4.536c0,0.188,0.16,0.349,0.348,0.349h0.456    c0.187,0,0.347-0.16,0.347-0.349v-4.896C24.605,128.713,23.949,128.219,22.986,128.219z"/>
		<path fill="#697D91" d="M30.402,128.219c-0.776,0-1.378,0.374-1.967,0.924v-3.387c0-0.188-0.161-0.348-0.349-0.348h-0.453    c-0.188,0-0.348,0.162-0.348,0.348v8.992c0,0.188,0.16,0.348,0.348,0.348h0.453c0.188,0,0.349-0.16,0.349-0.348v-4.71    c0.481-0.429,1.085-0.804,1.619-0.804c0.602,0,0.815,0.216,0.815,0.979v4.536c0,0.188,0.161,0.349,0.349,0.349h0.455    c0.188,0,0.348-0.16,0.348-0.349v-4.896C32.021,128.713,31.365,128.219,30.402,128.219z"/>
		<path fill="#697D91" d="M37.075,128.219c-1.632,0-2.716,1.002-2.716,3.518c0,2.521,1.11,3.535,2.743,3.535    s2.729-1.019,2.729-3.535C39.831,129.221,38.707,128.219,37.075,128.219z M37.102,134.359c-1.016,0-1.512-0.562-1.512-2.623    c0-2.073,0.482-2.609,1.499-2.609s1.512,0.549,1.512,2.623C38.601,133.812,38.119,134.359,37.102,134.359z"/>
		<path fill="#697D91" d="M46.057,133.945c-0.12-0.149-0.348-0.16-0.496-0.041c-0.281,0.229-0.562,0.389-0.976,0.389    c-1.071,0-1.499-0.497-1.499-2.557c0-2.104,0.389-2.541,1.405-2.541c0.442,0,0.722,0.117,1.017,0.348    c0.147,0.12,0.362,0.105,0.495-0.041l0.214-0.27c0.12-0.146,0.105-0.36-0.054-0.48c-0.481-0.391-0.99-0.535-1.633-0.535    c-1.659,0-2.676,0.963-2.676,3.518c0,2.41,0.95,3.535,2.663,3.535c0.762,0,1.312-0.201,1.753-0.59    c0.146-0.119,0.161-0.348,0.026-0.479L46.057,133.945z"/>
		<path fill="#697D91" d="M51.708,128.219c-0.776,0-1.378,0.374-1.968,0.924v-3.387c0-0.188-0.16-0.348-0.347-0.348h-0.455    c-0.188,0-0.35,0.162-0.35,0.348v8.992c0,0.188,0.162,0.348,0.35,0.348h0.455c0.187,0,0.347-0.16,0.347-0.348v-4.71    c0.482-0.429,1.086-0.804,1.62-0.804c0.604,0,0.817,0.216,0.817,0.979v4.536c0,0.188,0.16,0.349,0.346,0.349h0.456    c0.187,0,0.348-0.16,0.348-0.349v-4.896C53.327,128.713,52.67,128.219,51.708,128.219z"/>
		<path fill="#697D91" d="M57.994,131.068c-0.923-0.254-1.203-0.414-1.203-1.045c0-0.573,0.333-0.828,1.056-0.828    c0.402,0,0.709,0.054,1.097,0.228c0.187,0.081,0.389-0.013,0.468-0.188l0.121-0.268c0.08-0.174,0-0.388-0.174-0.468    c-0.428-0.174-0.911-0.28-1.553-0.28c-1.472,0-2.101,0.856-2.101,1.833c0,1.325,0.776,1.819,1.713,2.073    c1.07,0.296,1.418,0.441,1.418,1.193c0,0.627-0.281,0.988-1.189,0.988c-0.549,0-1.032-0.16-1.499-0.432    c-0.162-0.092-0.375-0.041-0.469,0.134l-0.147,0.257c-0.093,0.158-0.039,0.375,0.122,0.479c0.495,0.278,1.203,0.521,1.939,0.521    c1.579,0,2.369-0.617,2.369-2.009C59.962,131.75,59.024,131.348,57.994,131.068z"/>
		<path fill="#697D91" d="M66.121,133.945c-0.12-0.149-0.348-0.16-0.496-0.041c-0.279,0.229-0.561,0.389-0.977,0.389    c-1.069,0-1.498-0.497-1.498-2.557c0-2.104,0.389-2.541,1.404-2.541c0.439,0,0.723,0.117,1.018,0.348    c0.148,0.12,0.361,0.105,0.494-0.041l0.216-0.27c0.12-0.146,0.106-0.36-0.054-0.48c-0.482-0.391-0.992-0.535-1.633-0.535    c-1.66,0-2.681,0.963-2.681,3.518c0,2.41,0.95,3.535,2.664,3.535c0.762,0,1.312-0.201,1.753-0.59    c0.146-0.119,0.16-0.348,0.023-0.479L66.121,133.945z"/>
		<path fill="#697D91" d="M71.771,128.219c-0.775,0-1.377,0.374-1.967,0.924v-3.387c0-0.188-0.16-0.348-0.351-0.348H69    c-0.188,0-0.354,0.162-0.354,0.348v8.992c0,0.188,0.162,0.348,0.354,0.348h0.454c0.188,0,0.351-0.16,0.351-0.348v-4.71    c0.479-0.429,1.084-0.804,1.616-0.804c0.604,0,0.813,0.216,0.813,0.979v4.536c0,0.188,0.16,0.349,0.35,0.349h0.455    c0.188,0,0.354-0.16,0.354-0.349v-4.896C73.391,128.713,72.734,128.219,71.771,128.219z"/>
		<path fill="#697D91" d="M80.467,128.393h-0.455c-0.187,0-0.349,0.16-0.349,0.35v4.711c-0.495,0.439-1.07,0.804-1.604,0.804    c-0.604,0-0.871-0.271-0.871-1.062v-4.453c0-0.188-0.16-0.35-0.348-0.35h-0.456c-0.188,0-0.347,0.16-0.347,0.35v4.816    c0,1.164,0.748,1.713,1.713,1.713c0.789,0,1.432-0.43,1.993-1.006l0.106,0.498c0.041,0.188,0.213,0.332,0.414,0.332h0.198    c0.188,0,0.351-0.16,0.351-0.348v-6.01C80.814,128.553,80.654,128.393,80.467,128.393z"/>
		<path fill="#697D91" d="M85.309,134.266c-0.041,0.018-0.093,0.018-0.146,0.018c-0.322,0-0.47-0.137-0.47-0.471v-8.057    c0-0.188-0.159-0.348-0.348-0.348h-0.455c-0.188,0-0.35,0.162-0.35,0.348v7.842c0,1.176,0.357,1.633,1.221,1.633    c0.157,0,0.33-0.024,0.492-0.055c0.188-0.041,0.311-0.229,0.27-0.412l-0.065-0.391C85.441,134.305,85.376,134.266,85.309,134.266z    "/>
		<path fill="#697D91" d="M89.786,128.219c-1.58,0-2.625,0.977-2.625,3.518c0,2.521,0.991,3.535,2.743,3.535    c0.844,0,1.406-0.176,1.955-0.562c0.158-0.106,0.187-0.335,0.08-0.481l-0.215-0.277c-0.105-0.148-0.334-0.188-0.494-0.068    c-0.351,0.241-0.726,0.416-1.299,0.416c-1.109,0-1.515-0.457-1.539-2.289h3.681c0.12,0,0.214-0.094,0.214-0.214v-0.237    C92.288,129.127,91.377,128.219,89.786,128.219z M88.407,131.137c0.094-1.605,0.575-2.009,1.351-2.009    c0.965,0,1.312,0.468,1.312,2.009H88.407z"/>
		<path fill="#FAC300" d="M32.953,57.284h-1.26c-0.44,0-0.818,0.377-0.818,0.819v8.893h-7.816v-8.893    c0-0.442-0.378-0.819-0.818-0.819h-1.264c-0.441,0-0.819,0.377-0.819,0.819v20.075c0,0.441,0.378,0.818,0.819,0.818h1.264    c0.44,0,0.818-0.377,0.818-0.818v-8.631h7.816v8.631c0,0.441,0.377,0.818,0.818,0.818h1.26c0.441,0,0.819-0.377,0.819-0.818    V58.103C33.772,57.661,33.394,57.284,32.953,57.284z"/>
		<path fill="#FAC300" d="M32.97,16.915H20.897c-0.441,0-0.823,0.378-0.823,0.819v20.077c0,0.442,0.382,0.823,0.823,0.823h1.259    c0.441,0,0.819-0.381,0.819-0.823v-8.938h8.514c0.441,0,0.819-0.378,0.819-0.819v-0.851c0-0.442-0.377-0.823-0.819-0.823h-8.514    v-6.979h9.995c0.441,0,0.82-0.378,0.82-0.819v-0.85C33.79,17.292,33.412,16.915,32.97,16.915z"/>
	</g>
</g>
<g id="fr" display="none">
	<g display="inline">
		<path fill="none" d="M55.937,115.816c0-2.074-0.495-2.623-1.511-2.623c-1.018,0-1.499,0.535-1.499,2.606    c0,2.062,0.495,2.621,1.511,2.621C55.455,118.425,55.937,117.876,55.937,115.816z"/>
		<path fill="none" d="M41.058,113.193c-0.777,0-1.258,0.4-1.352,2.007h2.663C42.368,113.662,42.02,113.193,41.058,113.193z"/>
		<path fill="none" d="M65.814,113.193c-0.776,0-1.258,0.4-1.354,2.007h2.664C67.126,113.662,66.777,113.193,65.814,113.193z"/>
		<path fill="none" d="M30.363,113.193c-0.777,0-1.258,0.4-1.353,2.007h2.663C31.673,113.662,31.326,113.193,30.363,113.193z"/>
		<path fill="none" d="M9.507,117.248c0,0.883,0.281,1.177,0.937,1.177c0.656,0,1.151-0.44,1.473-0.802v-1.779h-0.402    C9.828,115.844,9.507,116.271,9.507,117.248z"/>
		<path fill="#4B647D" d="M5.432,109.941H4.896c-0.187,0-0.348,0.162-0.348,0.348v3.427H1.229v-3.427    c0-0.188-0.16-0.348-0.347-0.348H0.346c-0.188,0-0.348,0.162-0.348,0.348v8.523c0,0.188,0.16,0.35,0.348,0.35h0.536    c0.188,0,0.347-0.162,0.347-0.35v-4.017h3.319v4.017c0,0.188,0.161,0.35,0.348,0.35h0.536c0.187,0,0.347-0.162,0.347-0.35v-8.523    C5.779,110.104,5.619,109.941,5.432,109.941z"/>
		<path fill="#4B647D" d="M11.03,112.284c-0.911,0-1.607,0.241-2.209,0.562c-0.173,0.094-0.239,0.309-0.16,0.482l0.135,0.254    c0.08,0.174,0.294,0.24,0.467,0.161c0.509-0.255,1.071-0.455,1.646-0.455c0.87,0,0.964,0.455,0.964,1.205v0.522h-0.549    c-2.194,0-3.09,0.709-3.09,2.23c0,1.378,0.735,2.087,2.021,2.087c0.735,0,1.297-0.415,1.686-0.843l0.093,0.335    c0.054,0.198,0.241,0.335,0.442,0.335h0.2c0.188,0,0.348-0.162,0.348-0.352v-4.51C13.024,112.872,12.342,112.284,11.03,112.284z     M11.873,117.623c-0.321,0.361-0.817,0.802-1.472,0.802c-0.655,0-0.937-0.294-0.937-1.177c0-0.977,0.321-1.404,2.008-1.404h0.401    V117.623z"/>
		<path fill="#4B647D" d="M20.496,118.812v-6.008c0-0.188-0.16-0.351-0.347-0.351h-0.456c-0.188,0-0.348,0.161-0.348,0.351v4.711    c-0.495,0.438-1.07,0.801-1.607,0.801c-0.601,0-0.868-0.271-0.868-1.059v-4.453c0-0.188-0.162-0.352-0.349-0.352h-0.455    c-0.188,0-0.347,0.16-0.347,0.352v4.813c0,1.163,0.748,1.712,1.713,1.712c0.789,0,1.432-0.43,1.992-1.002l0.108,0.492    c0.041,0.189,0.214,0.336,0.415,0.336h0.202C20.336,119.162,20.496,119,20.496,118.812z"/>
		<path fill="#4B647D" d="M25.521,118.346c-0.12,0.039-0.254,0.067-0.415,0.067c-0.374,0-0.548-0.188-0.548-0.616v-4.402h1.031    c0.188,0,0.349-0.16,0.349-0.348v-0.24c0-0.188-0.161-0.349-0.349-0.349h-1.031v-1.633c0-0.175-0.16-0.308-0.335-0.267    l-0.481,0.092c-0.188,0.055-0.334,0.229-0.334,0.429v1.379h-0.416c-0.187,0-0.347,0.161-0.347,0.349v0.24    c0,0.188,0.16,0.348,0.347,0.348h0.416v4.514c0,1.066,0.696,1.431,1.605,1.431c0.28,0,0.522-0.053,0.736-0.118    c0.188-0.066,0.281-0.256,0.24-0.439l-0.052-0.202C25.882,118.4,25.695,118.292,25.521,118.346z"/>
		<path fill="#4B647D" d="M32.542,118.292l-0.214-0.28c-0.106-0.146-0.333-0.189-0.495-0.068c-0.348,0.24-0.722,0.416-1.298,0.416    c-1.11,0-1.511-0.453-1.539-2.289h3.68c0.12,0,0.215-0.094,0.215-0.215v-0.236c0-2.426-0.911-3.332-2.503-3.332    c-1.579,0-2.623,0.977-2.623,3.521c0,2.514,0.991,3.528,2.743,3.528c0.843,0,1.404-0.173,1.954-0.562    C32.624,118.667,32.651,118.438,32.542,118.292z M30.363,113.193c0.963,0,1.311,0.468,1.311,2.007H29.01    C29.105,113.596,29.585,113.193,30.363,113.193z"/>
		<path fill="#4B647D" d="M43.195,118.292l-0.215-0.28c-0.105-0.146-0.333-0.189-0.495-0.068c-0.347,0.24-0.722,0.416-1.296,0.416    c-1.111,0-1.513-0.453-1.539-2.289h3.68c0.12,0,0.214-0.094,0.214-0.215v-0.236c0-2.426-0.91-3.332-2.501-3.332    c-1.58,0-2.624,0.977-2.624,3.521c0,2.514,0.991,3.528,2.743,3.528c0.844,0,1.405-0.173,1.954-0.562    C43.276,118.667,43.302,118.438,43.195,118.292z M41.014,113.193c0.963,0,1.312,0.468,1.312,2.007h-2.664    C39.757,113.596,40.238,113.193,41.014,113.193z"/>
		<path fill="#4B647D" d="M41.871,109.326l-1.994,1.379c-0.16,0.107-0.201,0.333-0.108,0.496l0.067,0.119    c0.094,0.162,0.309,0.229,0.482,0.135l2.141-1.044c0.16-0.095,0.228-0.308,0.147-0.468l-0.295-0.51    C42.231,109.271,42.018,109.219,41.871,109.326z"/>
		<path fill="#4B647D" d="M49.852,118.747c0.148-0.121,0.162-0.347,0.027-0.481l-0.241-0.254c-0.12-0.146-0.348-0.16-0.495-0.041    c-0.28,0.229-0.562,0.389-0.976,0.389c-1.071,0-1.499-0.492-1.499-2.555c0-2.103,0.388-2.543,1.404-2.543    c0.442,0,0.723,0.12,1.017,0.346c0.148,0.123,0.362,0.108,0.497-0.039l0.214-0.268c0.119-0.146,0.105-0.361-0.054-0.482    c-0.482-0.387-0.991-0.531-1.633-0.531c-1.659,0-2.676,0.962-2.676,3.521c0,2.405,0.95,3.528,2.664,3.528    C48.862,119.335,49.41,119.134,49.852,118.747z"/>
		<path fill="#4B647D" d="M57.126,115.805c0-2.518-1.125-3.521-2.757-3.521c-1.632,0-2.716,1.003-2.716,3.521    c0,2.514,1.11,3.53,2.744,3.53C56.028,119.335,57.126,118.318,57.126,115.805z M52.884,115.805c0-2.074,0.48-2.611,1.499-2.611    c1.017,0,1.511,0.553,1.511,2.625c0,2.062-0.481,2.607-1.498,2.607C53.379,118.425,52.884,117.863,52.884,115.805z"/>
		<path fill="#4B647D" d="M61.212,119.242c0.188-0.041,0.308-0.229,0.268-0.415l-0.067-0.388c-0.013-0.066-0.079-0.106-0.146-0.106    c-0.041,0.013-0.094,0.013-0.148,0.013c-0.32,0-0.467-0.134-0.467-0.469v-8.055c0-0.188-0.161-0.348-0.348-0.348h-0.456    c-0.187,0-0.346,0.156-0.346,0.348v7.842c0,1.178,0.361,1.633,1.217,1.633C60.878,119.296,61.052,119.27,61.212,119.242z"/>
		<path fill="#4B647D" d="M65.799,112.284c-1.578,0-2.624,0.976-2.624,3.521c0,2.514,0.991,3.53,2.744,3.53    c0.843,0,1.405-0.173,1.955-0.562c0.16-0.106,0.187-0.334,0.08-0.48l-0.214-0.281c-0.107-0.146-0.334-0.188-0.495-0.068    c-0.349,0.242-0.724,0.416-1.298,0.416c-1.11,0-1.514-0.455-1.539-2.289h3.68c0.12,0,0.213-0.094,0.213-0.215v-0.235    C68.3,113.193,67.391,112.284,65.799,112.284z M64.42,115.201c0.094-1.605,0.576-2.008,1.352-2.008    c0.965,0,1.312,0.469,1.312,2.008H64.42z"/>
		<path fill="#4B647D" d="M2.507,131.176c-0.923-0.254-1.204-0.414-1.204-1.044c0-0.575,0.333-0.829,1.057-0.829    c0.4,0,0.709,0.055,1.097,0.229c0.188,0.08,0.388-0.014,0.467-0.188l0.12-0.268c0.082-0.176,0-0.391-0.172-0.469    c-0.429-0.176-0.911-0.28-1.553-0.28c-1.471,0-2.101,0.854-2.101,1.834c0,1.323,0.776,1.817,1.713,2.073    c1.071,0.293,1.418,0.439,1.418,1.188c0,0.631-0.281,0.991-1.19,0.991c-0.549,0-1.031-0.162-1.499-0.431    c-0.162-0.094-0.375-0.041-0.47,0.136l-0.147,0.254c-0.092,0.161-0.04,0.374,0.122,0.479c0.495,0.279,1.204,0.521,1.94,0.521    c1.578,0,2.368-0.615,2.368-2.008C4.473,131.857,3.537,131.457,2.507,131.176z"/>
		<path fill="#4B647D" d="M9.752,128.325c-0.708,0-1.35,0.375-1.859,0.937l-0.107-0.429c-0.041-0.187-0.227-0.333-0.428-0.333h-0.2    c-0.188,0-0.348,0.16-0.348,0.348v8.698c0,0.187,0.16,0.347,0.348,0.347h0.454c0.188,0,0.348-0.16,0.348-0.347v-2.918    c0.429,0.415,1.044,0.75,1.78,0.75c1.565,0,2.301-1.058,2.301-3.571C12.041,129.047,11.037,128.325,9.752,128.325z M9.445,134.389    c-0.562,0-1.097-0.283-1.485-0.656v-3.627c0.482-0.455,0.937-0.789,1.593-0.789c0.909,0,1.257,0.416,1.257,2.568    C10.811,134.039,10.395,134.389,9.445,134.389z"/>
		<path fill="#4B647D" d="M15.915,127.496l2.141-1.044c0.16-0.095,0.226-0.308,0.147-0.468l-0.294-0.51    c-0.082-0.16-0.295-0.217-0.442-0.106l-1.994,1.379c-0.16,0.106-0.201,0.334-0.107,0.495l0.067,0.121    C15.526,127.523,15.74,127.589,15.915,127.496z"/>
		<path fill="#4B647D" d="M16.636,128.325c-1.579,0-2.622,0.978-2.622,3.521c0,2.514,0.99,3.532,2.743,3.532    c0.843,0,1.405-0.174,1.953-0.562c0.161-0.106,0.188-0.334,0.082-0.48l-0.215-0.281c-0.108-0.146-0.334-0.188-0.495-0.068    c-0.349,0.242-0.723,0.414-1.297,0.414c-1.111,0-1.513-0.45-1.54-2.284h3.681c0.121,0,0.214-0.097,0.214-0.218v-0.237    C19.139,129.234,18.229,128.325,16.636,128.325z M15.259,131.243c0.094-1.606,0.575-2.009,1.352-2.009    c0.962,0,1.312,0.47,1.312,2.009H15.259z"/>
		<path fill="#4B647D" d="M25.235,134.053c-0.121-0.146-0.35-0.16-0.496-0.039c-0.281,0.229-0.562,0.387-0.976,0.387    c-1.07,0-1.499-0.494-1.499-2.555c0-2.102,0.388-2.543,1.404-2.543c0.441,0,0.723,0.12,1.018,0.348    c0.147,0.121,0.361,0.106,0.495-0.041l0.213-0.266c0.122-0.148,0.108-0.361-0.052-0.482c-0.482-0.389-0.991-0.532-1.633-0.532    c-1.659,0-2.677,0.964-2.677,3.521c0,2.406,0.95,3.531,2.664,3.531c0.762,0,1.312-0.201,1.752-0.589    c0.148-0.12,0.161-0.351,0.028-0.479L25.235,134.053z"/>
		<path fill="#4B647D" d="M29.015,128.5H27.57c-0.188,0-0.348,0.16-0.348,0.348v0.041c0,0.2,0.146,0.375,0.348,0.4l0.642,0.107    v5.457c0,0.188,0.16,0.349,0.348,0.349h0.455c0.188,0,0.349-0.161,0.349-0.349v-6.006C29.363,128.66,29.202,128.5,29.015,128.5z"/>
		<path fill="#4B647D" d="M28.773,125.609c-0.455,0-0.801,0.359-0.801,0.828c0,0.455,0.334,0.813,0.789,0.813    c0.482,0,0.83-0.358,0.83-0.813C29.59,125.958,29.243,125.609,28.773,125.609z"/>
		<path fill="#4B647D" d="M34.536,128.325c-0.91,0-1.605,0.241-2.208,0.562c-0.173,0.094-0.24,0.309-0.16,0.481l0.133,0.254    c0.081,0.174,0.295,0.241,0.469,0.159c0.508-0.252,1.071-0.454,1.646-0.454c0.87,0,0.963,0.454,0.963,1.204v0.523H34.83    c-2.193,0-3.089,0.709-3.089,2.229c0,1.379,0.734,2.088,2.019,2.088c0.736,0,1.298-0.414,1.687-0.845l0.094,0.334    c0.052,0.199,0.24,0.334,0.442,0.334h0.2c0.189,0,0.347-0.159,0.347-0.35v-4.508C36.529,128.915,35.848,128.325,34.536,128.325z     M35.379,133.664c-0.321,0.363-0.816,0.805-1.471,0.805c-0.657,0-0.938-0.295-0.938-1.18c0-0.977,0.321-1.404,2.008-1.404h0.4    L35.379,133.664L35.379,133.664z"/>
		<path fill="#4B647D" d="M41.074,134.374c-0.041,0.015-0.094,0.015-0.148,0.015c-0.321,0-0.468-0.136-0.468-0.47v-8.056    c0-0.188-0.16-0.348-0.348-0.348h-0.455c-0.188,0-0.348,0.158-0.348,0.348v7.842c0,1.178,0.361,1.633,1.219,1.633    c0.158,0,0.333-0.027,0.495-0.054c0.187-0.04,0.306-0.228,0.267-0.415l-0.067-0.389C41.208,134.415,41.141,134.374,41.074,134.374    z"/>
		<path fill="#4B647D" d="M44.615,128.5H43.17c-0.189,0-0.348,0.16-0.348,0.348v0.041c0,0.2,0.146,0.375,0.348,0.4l0.642,0.107    v5.457c0,0.188,0.16,0.349,0.347,0.349h0.455c0.188,0,0.348-0.161,0.348-0.349v-6.006C44.963,128.66,44.802,128.5,44.615,128.5z"/>
		<path fill="#4B647D" d="M44.374,125.609c-0.455,0-0.803,0.359-0.803,0.828c0,0.455,0.335,0.813,0.79,0.813    c0.481,0,0.83-0.358,0.83-0.813C45.19,125.958,44.842,125.609,44.374,125.609z"/>
		<path fill="#4B647D" d="M49.749,131.176c-0.923-0.254-1.204-0.414-1.204-1.044c0-0.575,0.335-0.829,1.057-0.829    c0.402,0,0.709,0.055,1.097,0.229c0.188,0.08,0.39-0.014,0.469-0.188l0.121-0.268c0.08-0.176,0-0.391-0.174-0.469    c-0.428-0.176-0.91-0.28-1.554-0.28c-1.471,0-2.1,0.854-2.1,1.834c0,1.323,0.776,1.817,1.713,2.073    c1.07,0.293,1.418,0.439,1.418,1.188c0,0.631-0.282,0.991-1.19,0.991c-0.55,0-1.031-0.162-1.5-0.431    c-0.161-0.094-0.375-0.041-0.468,0.136l-0.148,0.254c-0.094,0.161-0.04,0.374,0.12,0.479c0.496,0.279,1.204,0.521,1.94,0.521    c1.579,0,2.369-0.615,2.369-2.008C51.716,131.857,50.779,131.457,49.749,131.176z"/>
		<path fill="#4B647D" d="M56.22,128.325c-1.579,0-2.623,0.978-2.623,3.521c0,2.514,0.99,3.532,2.743,3.532    c0.842,0,1.404-0.174,1.954-0.562c0.16-0.106,0.187-0.334,0.08-0.48l-0.214-0.281c-0.107-0.146-0.333-0.188-0.495-0.068    c-0.349,0.242-0.722,0.414-1.299,0.414c-1.109,0-1.511-0.45-1.538-2.284h3.68c0.12,0,0.215-0.097,0.215-0.218v-0.237    C58.723,129.234,57.812,128.325,56.22,128.325z M54.841,131.243c0.094-1.606,0.575-2.009,1.353-2.009    c0.962,0,1.31,0.47,1.31,2.009H54.841z"/>
		<path fill="#4B647D" d="M57.049,125.368l-1.993,1.379c-0.161,0.106-0.201,0.334-0.108,0.495l0.067,0.121    c0.095,0.16,0.308,0.227,0.483,0.133l2.141-1.044c0.16-0.095,0.227-0.308,0.146-0.468l-0.296-0.51    C57.411,125.314,57.197,125.262,57.049,125.368z"/>
		<path fill="#4B647D" d="M63.238,128.325c-1.578,0-2.623,0.978-2.623,3.521c0,2.514,0.99,3.532,2.742,3.532    c0.844,0,1.406-0.174,1.955-0.562c0.16-0.106,0.188-0.334,0.08-0.48l-0.215-0.281c-0.107-0.146-0.337-0.188-0.496-0.068    c-0.35,0.242-0.725,0.414-1.295,0.414c-1.111,0-1.516-0.45-1.541-2.284h3.678c0.119,0,0.215-0.097,0.215-0.218v-0.237    C65.741,129.234,64.83,128.325,63.238,128.325z M61.859,131.243c0.094-1.606,0.574-2.009,1.352-2.009    c0.963,0,1.312,0.47,1.312,2.009H61.859z"/>
		<path fill="#4B647D" d="M74.708,128.325c-0.708,0-1.312,0.36-1.794,0.87v-3.332c0-0.188-0.159-0.348-0.348-0.348h-0.453    c-0.188,0-0.35,0.158-0.35,0.348v8.992c0,0.188,0.158,0.348,0.35,0.348h0.199c0.201,0,0.389-0.135,0.439-0.334l0.096-0.309    c0.389,0.438,1.108,0.813,1.848,0.813c1.562,0,2.302-1.06,2.302-3.571C76.997,129.047,75.992,128.325,74.708,128.325z     M74.4,134.389c-0.562,0-1.098-0.283-1.487-0.656v-3.627c0.483-0.455,0.937-0.789,1.594-0.789c0.909,0,1.257,0.416,1.257,2.568    C75.766,134.039,75.35,134.389,74.4,134.389z"/>
		<path fill="#4B647D" d="M81.593,128.325c-1.579,0-2.624,0.978-2.624,3.521c0,2.514,0.991,3.532,2.744,3.532    c0.844,0,1.405-0.174,1.954-0.562c0.16-0.106,0.187-0.334,0.081-0.48l-0.214-0.281c-0.108-0.146-0.334-0.188-0.496-0.068    c-0.349,0.242-0.722,0.414-1.298,0.414c-1.109,0-1.512-0.45-1.538-2.284h3.679c0.12,0,0.215-0.097,0.215-0.218v-0.237    C84.096,129.234,83.186,128.325,81.593,128.325z M80.214,131.243c0.095-1.606,0.574-2.009,1.353-2.009    c0.963,0,1.312,0.47,1.312,2.009H80.214z"/>
		<path fill="#4B647D" d="M89.412,128.379c-0.775,0-1.391,0.454-1.887,1.071l-0.119-0.603c-0.041-0.201-0.215-0.352-0.416-0.352    h-0.2c-0.187,0-0.349,0.158-0.349,0.352v6.006c0,0.188,0.162,0.349,0.349,0.349h0.455c0.188,0,0.348-0.161,0.348-0.349v-4.574    c0.494-0.457,0.91-0.687,1.525-0.687c0.067,0,0.147,0,0.214,0.017c0.107,0.014,0.201-0.066,0.213-0.16l0.096-0.938    c0.012-0.056-0.041-0.107-0.096-0.121C89.507,128.379,89.453,128.379,89.412,128.379z"/>
		<path fill="#4B647D" d="M94.787,128.325c-0.79,0-1.458,0.416-2.047,1.004l-0.107-0.496c-0.04-0.187-0.215-0.333-0.415-0.333H92.02    c-0.188,0-0.351,0.16-0.351,0.348v6.008c0,0.188,0.162,0.351,0.351,0.351h0.455c0.188,0,0.346-0.161,0.346-0.351v-4.709    c0.482-0.43,1.084-0.803,1.619-0.803c0.604,0,0.817,0.213,0.817,0.975v4.537c0,0.188,0.16,0.351,0.349,0.351h0.455    c0.188,0,0.351-0.161,0.351-0.351v-4.896C96.407,128.82,95.75,128.325,94.787,128.325z"/>
		<path fill="#4B647D" d="M101.416,128.325c-1.631,0-2.716,1.004-2.716,3.521c0,2.514,1.11,3.532,2.743,3.532    s2.729-1.019,2.729-3.532C104.173,129.329,103.049,128.325,101.416,128.325z M101.443,134.469c-1.021,0-1.512-0.562-1.512-2.623    c0-2.074,0.479-2.609,1.498-2.609c1.018,0,1.512,0.551,1.512,2.623C102.941,133.919,102.461,134.469,101.443,134.469z"/>
		<path fill="#4B647D" d="M107.7,128.5h-1.446c-0.188,0-0.347,0.16-0.347,0.348v0.041c0,0.2,0.147,0.375,0.347,0.4l0.643,0.107    v5.457c0,0.188,0.162,0.349,0.353,0.349h0.455c0.188,0,0.348-0.161,0.348-0.349v-6.006C108.047,128.66,107.887,128.5,107.7,128.5z    "/>
		<path fill="#4B647D" d="M107.458,125.609c-0.455,0-0.804,0.359-0.804,0.828c0,0.455,0.336,0.813,0.791,0.813    c0.479,0,0.828-0.358,0.828-0.813C108.273,125.958,107.926,125.609,107.458,125.609z"/>
		<path fill="#4B647D" d="M112.832,131.176c-0.922-0.254-1.203-0.414-1.203-1.044c0-0.575,0.334-0.829,1.057-0.829    c0.401,0,0.709,0.055,1.1,0.229c0.188,0.08,0.39-0.014,0.469-0.188l0.122-0.268c0.08-0.176,0-0.391-0.174-0.469    c-0.433-0.176-0.91-0.28-1.556-0.28c-1.473,0-2.103,0.854-2.103,1.834c0,1.323,0.776,1.817,1.713,2.073    c1.07,0.293,1.42,0.439,1.42,1.188c0,0.631-0.282,0.991-1.19,0.991c-0.549,0-1.027-0.162-1.5-0.431    c-0.157-0.094-0.375-0.041-0.467,0.136l-0.146,0.254c-0.097,0.161-0.04,0.374,0.121,0.479c0.491,0.279,1.2,0.521,1.938,0.521    c1.58,0,2.367-0.615,2.367-2.008C114.799,131.857,113.863,131.457,112.832,131.176z"/>
		<path fill="#4B647D" d="M119.303,128.325c-1.578,0-2.623,0.978-2.623,3.521c0,2.514,0.99,3.532,2.742,3.532    c0.844,0,1.404-0.174,1.955-0.562c0.159-0.106,0.188-0.334,0.079-0.48l-0.214-0.281c-0.107-0.146-0.333-0.188-0.495-0.068    c-0.349,0.242-0.722,0.414-1.298,0.414c-1.11,0-1.512-0.45-1.539-2.284h3.68c0.121,0,0.215-0.097,0.215-0.218v-0.237    C121.807,129.234,120.895,128.325,119.303,128.325z M117.924,131.243c0.096-1.606,0.575-2.009,1.354-2.009    c0.966,0,1.312,0.47,1.312,2.009H117.924z"/>
		<path fill="#4B647D" d="M61.573,70.96c0-10.714-5.669-19.939-14.704-23.437c-0.017-0.007-0.258-0.084-0.258-0.391    c0-0.168,0.099-0.299,0.234-0.385c6.965-4.369,11.269-12.428,11.269-21.714c0-13.828-11.21-25.034-25.034-25.034H3.474    c-1.919,0-3.476,1.554-3.476,3.474V92.52c0,1.916,1.556,3.476,3.476,3.476L36.534,96C50.358,96,61.573,84.791,61.573,70.96z     M33.771,78.178c0,0.441-0.378,0.818-0.819,0.818h-1.26c-0.441,0-0.818-0.377-0.818-0.818v-8.631h-7.817v8.631    c0,0.441-0.378,0.818-0.818,0.818h-1.264c-0.441,0-0.819-0.377-0.819-0.818V58.103c0-0.442,0.378-0.819,0.819-0.819h1.264    c0.44,0,0.818,0.377,0.818,0.819v8.893h7.817v-8.893c0-0.442,0.377-0.819,0.818-0.819h1.26c0.44,0,0.819,0.377,0.819,0.819V78.178    z M33.789,18.584c0,0.441-0.378,0.819-0.82,0.819h-9.994v6.979h8.515c0.441,0,0.818,0.381,0.818,0.823v0.851    c0,0.44-0.377,0.819-0.818,0.819h-8.515v8.938c0,0.442-0.378,0.823-0.819,0.823h-1.259c-0.442,0-0.823-0.381-0.823-0.823V17.734    c0-0.441,0.381-0.819,0.823-0.819H32.97c0.442,0,0.82,0.378,0.82,0.819L33.789,18.584L33.789,18.584z"/>
		<path fill="#FAC300" d="M32.954,57.284h-1.26c-0.441,0-0.818,0.377-0.818,0.819v8.893H23.06v-8.893    c0-0.442-0.378-0.819-0.818-0.819h-1.264c-0.441,0-0.819,0.377-0.819,0.819v20.075c0,0.441,0.378,0.818,0.819,0.818h1.264    c0.44,0,0.818-0.377,0.818-0.818v-8.631h7.817v8.631c0,0.441,0.377,0.818,0.818,0.818h1.26c0.44,0,0.819-0.377,0.819-0.818V58.103    C33.773,57.661,33.395,57.284,32.954,57.284z"/>
		<path fill="#FAC300" d="M32.971,16.915H20.898c-0.442,0-0.823,0.378-0.823,0.819v20.077c0,0.442,0.381,0.823,0.823,0.823h1.259    c0.441,0,0.819-0.381,0.819-0.823v-8.938h8.515c0.441,0,0.818-0.378,0.818-0.819v-0.851c0-0.442-0.377-0.823-0.818-0.823h-8.515    v-6.979h9.994c0.442,0,0.82-0.378,0.82-0.819v-0.85C33.791,17.292,33.413,16.915,32.971,16.915z"/>
	</g>
</g>
<g id="en" display="none">
	<g display="inline">
		<path fill="none" d="M61.148,113.193c-0.776,0-1.258,0.4-1.353,2.007h2.664C62.46,113.662,62.111,113.193,61.148,113.193z"/>
		<path fill="none" d="M86.8,129.234c-0.776,0-1.257,0.398-1.352,2.009h2.663C88.111,129.704,87.764,129.234,86.8,129.234z"/>
		<path fill="none" d="M34.599,129.314c-0.655,0-1.11,0.336-1.593,0.791v3.625c0.388,0.375,0.924,0.653,1.486,0.653    c0.951,0,1.365-0.349,1.365-2.503C35.856,129.73,35.509,129.314,34.599,129.314z"/>
		<path fill="none" d="M26.939,129.314c-0.657,0-1.111,0.336-1.592,0.791v3.625c0.387,0.375,0.923,0.653,1.485,0.653    c0.949,0,1.364-0.349,1.364-2.503C28.196,129.73,27.849,129.314,26.939,129.314z"/>
		<path fill="none" d="M55.931,131.816c0,2.156,0.349,2.567,1.26,2.567c0.655,0,1.111-0.269,1.592-0.724v-3.626    c-0.389-0.374-0.923-0.726-1.485-0.726C56.347,129.314,55.931,129.664,55.931,131.816z"/>
		<path fill="none" d="M50.186,129.234c-0.777,0-1.258,0.398-1.352,2.009h2.663C51.497,129.704,51.149,129.234,50.186,129.234z"/>
		<path fill="none" d="M18.718,127.229H18.69c-0.133,0.735-0.253,1.258-0.669,2.664l-0.468,1.592h2.248l-0.442-1.592    C18.958,128.46,18.852,127.938,18.718,127.229z"/>
		<path fill="none" d="M10.162,113.193c-0.776,0-1.257,0.4-1.352,2.007h2.664C11.474,113.662,11.125,113.193,10.162,113.193z"/>
		<path fill="none" d="M107.52,129.234c-0.771,0-1.256,0.398-1.351,2.009h2.663C108.832,129.704,108.484,129.234,107.52,129.234z"/>
		<path fill="none" d="M2.729,129.234c-1.017,0-1.499,0.537-1.499,2.606c0,2.062,0.496,2.623,1.512,2.623    c1.018,0,1.499-0.549,1.499-2.606C4.241,129.784,3.745,129.234,2.729,129.234z"/>
		<path fill="none" d="M3.976,112.432c0-0.965-0.308-1.459-1.392-1.459H1.125v2.877H2.65C3.734,113.85,3.976,113.395,3.976,112.432z    "/>
		<path fill="none" d="M2.69,114.893H1.139v3.238h1.499c1.285,0,1.739-0.494,1.739-1.617C4.376,115.4,3.962,114.893,2.69,114.893z"/>
		<path fill="#4B647D" d="M4.241,114.264c0.883-0.375,1.124-0.896,1.124-1.857c0-1.444-0.709-2.465-2.65-2.465H0.347    c-0.188,0-0.348,0.162-0.348,0.351v8.521c0,0.188,0.161,0.353,0.348,0.353h2.515c1.713,0,2.917-0.75,2.917-2.583    C5.779,115.213,5.136,114.518,4.241,114.264z M1.215,110.973h1.46c1.083,0,1.391,0.494,1.391,1.459    c0,0.963-0.241,1.418-1.325,1.418H1.215V110.973z M2.729,118.131H1.23v-3.238h1.552c1.272,0,1.687,0.51,1.687,1.621    C4.468,117.637,4.013,118.131,2.729,118.131z"/>
		<path fill="#4B647D" d="M10.281,112.284c-1.58,0-2.623,0.976-2.623,3.521c0,2.514,0.99,3.53,2.743,3.53    c0.843,0,1.405-0.173,1.954-0.562c0.16-0.106,0.188-0.334,0.081-0.48l-0.214-0.281c-0.107-0.146-0.334-0.188-0.495-0.068    c-0.348,0.242-0.724,0.416-1.299,0.416c-1.11,0-1.513-0.455-1.538-2.289h3.679c0.12,0,0.215-0.094,0.215-0.215v-0.235    C12.783,113.193,11.873,112.284,10.281,112.284z M8.902,115.201c0.094-1.605,0.575-2.008,1.352-2.008    c0.962,0,1.311,0.469,1.311,2.008H8.902z"/>
		<path fill="#4B647D" d="M16.214,113.408l-0.121-0.604c-0.039-0.201-0.213-0.351-0.415-0.351h-0.2    c-0.188,0-0.349,0.161-0.349,0.351v6.008c0,0.188,0.161,0.35,0.349,0.35h0.454c0.189,0,0.348-0.162,0.348-0.35v-4.576    c0.496-0.454,0.911-0.682,1.526-0.682c0.068,0,0.147,0,0.214,0.012c0.108,0.015,0.202-0.065,0.214-0.158l0.095-0.938    c0.013-0.058-0.042-0.107-0.095-0.121c-0.04-0.016-0.094-0.016-0.134-0.016C17.326,112.337,16.71,112.792,16.214,113.408z"/>
		<path fill="#4B647D" d="M23.944,114.277v4.537c0,0.187,0.161,0.349,0.347,0.349h0.457c0.188,0,0.348-0.162,0.348-0.349v-4.896    c0-1.139-0.655-1.633-1.619-1.633c-0.79,0-1.46,0.415-2.047,1.003l-0.107-0.495c-0.04-0.188-0.213-0.334-0.414-0.334h-0.2    c-0.188,0-0.349,0.161-0.349,0.348v6.008c0,0.188,0.161,0.353,0.349,0.353h0.453c0.189,0,0.348-0.162,0.348-0.353v-4.709    c0.483-0.428,1.086-0.803,1.621-0.803C23.73,113.301,23.944,113.516,23.944,114.277z"/>
		<path fill="#4B647D" d="M37.154,109.941h-0.536c-0.188,0-0.348,0.162-0.348,0.348v7.12c-0.388,0.374-1.058,0.856-2.02,0.856    c-1.166,0-1.42-0.615-1.42-1.972v-6.009c0-0.188-0.16-0.35-0.348-0.35h-0.536c-0.188,0-0.348,0.16-0.348,0.35v6.224    c0,2.144,1.231,2.822,2.517,2.822c0.99,0,1.739-0.509,2.26-1.026l0.134,0.521c0.041,0.188,0.227,0.335,0.428,0.335h0.215    c0.188,0,0.348-0.162,0.348-0.35v-8.523C37.502,110.104,37.342,109.941,37.154,109.941z"/>
		<path fill="#4B647D" d="M43.554,112.284c-0.79,0-1.458,0.415-2.047,1.003l-0.107-0.495c-0.04-0.188-0.214-0.334-0.415-0.334h-0.2    c-0.188,0-0.349,0.161-0.349,0.349v6.008c0,0.188,0.161,0.352,0.349,0.352h0.455c0.188,0,0.347-0.162,0.347-0.352v-4.711    c0.482-0.428,1.084-0.801,1.619-0.801c0.602,0,0.817,0.213,0.817,0.977v4.535c0,0.188,0.161,0.353,0.347,0.353h0.456    c0.187,0,0.348-0.162,0.348-0.353v-4.896C45.174,112.779,44.519,112.284,43.554,112.284z"/>
		<path fill="#4B647D" d="M48.859,109.566c-0.455,0-0.803,0.358-0.803,0.83c0,0.455,0.334,0.813,0.79,0.813    c0.48,0,0.829-0.358,0.829-0.813C49.675,109.916,49.327,109.566,48.859,109.566z"/>
		<path fill="#4B647D" d="M48.646,119.162h0.455c0.187,0,0.348-0.162,0.348-0.35v-6.008c0-0.188-0.161-0.351-0.348-0.351h-1.445    c-0.188,0-0.349,0.161-0.349,0.351v0.039c0,0.199,0.147,0.372,0.349,0.399l0.642,0.104v5.459    C48.298,119,48.458,119.162,48.646,119.162z"/>
		<path fill="#4B647D" d="M54.943,118.827l2.035-6.035c0.053-0.173-0.067-0.334-0.24-0.334h-0.495c-0.201,0-0.388,0.134-0.442,0.334    l-1.044,3.479c-0.161,0.521-0.334,1.361-0.414,1.767h-0.014c-0.107-0.456-0.268-1.259-0.415-1.74l-1.043-3.506    c-0.053-0.2-0.241-0.334-0.442-0.334h-0.562c-0.175,0-0.294,0.161-0.242,0.334l1.993,6.035c0.067,0.2,0.255,0.335,0.456,0.335    h0.415C54.689,119.162,54.876,119.027,54.943,118.827z"/>
		<path fill="#4B647D" d="M61.267,112.284c-1.58,0-2.624,0.976-2.624,3.521c0,2.514,0.991,3.53,2.744,3.53    c0.843,0,1.405-0.173,1.954-0.562c0.16-0.106,0.187-0.334,0.079-0.48l-0.214-0.281c-0.106-0.146-0.334-0.188-0.495-0.068    c-0.348,0.242-0.723,0.416-1.298,0.416c-1.11,0-1.513-0.455-1.539-2.289h3.679c0.121,0,0.215-0.094,0.215-0.215v-0.235    C63.768,113.193,62.857,112.284,61.267,112.284z M59.888,115.201c0.095-1.605,0.576-2.008,1.351-2.008    c0.965,0,1.312,0.469,1.312,2.008H59.888z"/>
		<path fill="#4B647D" d="M66.465,119.162h0.455c0.188,0,0.348-0.162,0.348-0.35v-4.576c0.496-0.454,0.912-0.682,1.526-0.682    c0.065,0,0.147,0,0.214,0.012c0.105,0.015,0.201-0.065,0.213-0.158l0.096-0.938c0.016-0.058-0.043-0.107-0.096-0.121    c-0.041-0.016-0.093-0.016-0.134-0.016c-0.776,0-1.392,0.455-1.887,1.07l-0.121-0.604c-0.039-0.201-0.214-0.349-0.415-0.349h-0.2    c-0.188,0-0.348,0.161-0.348,0.349v6.008C66.117,119,66.277,119.162,66.465,119.162z"/>
		<path fill="#4B647D" d="M75.25,117.329c0-1.513-0.938-1.914-1.967-2.195c-0.924-0.254-1.204-0.415-1.204-1.043    c0-0.575,0.334-0.829,1.058-0.829c0.401,0,0.709,0.053,1.098,0.229c0.188,0.077,0.391-0.015,0.471-0.188l0.117-0.269    c0.08-0.175,0-0.388-0.174-0.47c-0.428-0.172-0.91-0.279-1.553-0.279c-1.472,0-2.1,0.855-2.1,1.833    c0,1.325,0.775,1.819,1.712,2.075c1.071,0.293,1.419,0.438,1.419,1.188c0,0.629-0.281,0.99-1.191,0.99    c-0.547,0-1.026-0.16-1.498-0.432c-0.162-0.092-0.375-0.037-0.469,0.139l-0.146,0.253c-0.094,0.159-0.036,0.374,0.121,0.479    c0.496,0.28,1.205,0.521,1.939,0.521C74.46,119.335,75.25,118.721,75.25,117.329z"/>
		<path fill="#4B647D" d="M78.764,112.458h-1.445c-0.188,0-0.348,0.161-0.348,0.349v0.039c0,0.201,0.147,0.375,0.348,0.401    l0.646,0.106v5.459c0,0.188,0.162,0.35,0.353,0.35h0.455c0.187,0,0.348-0.162,0.348-0.35v-6.008    C79.111,112.619,78.951,112.458,78.764,112.458z"/>
		<path fill="#4B647D" d="M78.51,111.213c0.48,0,0.829-0.361,0.829-0.816c0-0.479-0.349-0.83-0.815-0.83    c-0.455,0-0.803,0.361-0.803,0.83C77.721,110.852,78.055,111.213,78.51,111.213z"/>
		<path fill="#4B647D" d="M84.646,118.773l-0.056-0.201c-0.054-0.172-0.237-0.28-0.411-0.229c-0.121,0.037-0.257,0.065-0.414,0.065    c-0.375,0-0.552-0.188-0.552-0.616v-4.398h1.029c0.188,0,0.348-0.16,0.348-0.352v-0.238c0-0.188-0.157-0.351-0.348-0.351h-1.029    v-1.634c0-0.176-0.157-0.309-0.335-0.27l-0.479,0.096c-0.188,0.056-0.334,0.229-0.334,0.43v1.379H81.65    c-0.188,0-0.348,0.161-0.348,0.35v0.239c0,0.188,0.157,0.351,0.348,0.351h0.414v4.51c0,1.07,0.697,1.432,1.604,1.432    c0.28,0,0.521-0.053,0.735-0.12C84.594,119.148,84.688,118.961,84.646,118.773z"/>
		<path fill="#4B647D" d="M91.307,112.458h-0.496c-0.199,0-0.387,0.134-0.453,0.334l-1.086,3.612    c-0.201,0.656-0.317,1.352-0.414,1.832h-0.014c-0.094-0.508-0.254-1.295-0.4-1.832l-1.028-3.612    c-0.056-0.2-0.241-0.334-0.438-0.334H86.41c-0.176,0-0.294,0.161-0.241,0.334l1.899,6.116c0.054,0.146,0.188,0.254,0.349,0.254    h0.015c-0.334,1.109-0.683,1.472-1.513,1.738c-0.188,0.054-0.294,0.254-0.239,0.438l0.065,0.254    c0.054,0.188,0.239,0.312,0.427,0.257c1.139-0.27,1.661-0.668,2.264-2.479l2.113-6.583C91.6,112.619,91.48,112.458,91.307,112.458    z"/>
		<path fill="#4B647D" d="M2.714,128.325c-1.631,0-2.716,1.004-2.716,3.521c0,2.514,1.11,3.532,2.743,3.532    c1.633,0,2.73-1.019,2.73-3.532C5.472,129.329,4.348,128.325,2.714,128.325z M2.742,134.469c-1.016,0-1.512-0.562-1.512-2.623    c0-2.074,0.481-2.609,1.499-2.609c1.017,0,1.512,0.551,1.512,2.623C4.241,133.919,3.76,134.469,2.742,134.469z"/>
		<path fill="#4B647D" d="M9.627,125.436c-0.991,0-1.781,0.455-1.781,1.994v1.071H7.458c-0.188,0-0.348,0.16-0.348,0.349v0.24    c0,0.188,0.16,0.348,0.348,0.348h0.388v5.418c0,0.188,0.16,0.352,0.348,0.352h0.455c0.187,0,0.348-0.161,0.348-0.352v-5.418h0.909    c0.188,0,0.349-0.16,0.349-0.348v-0.24c0-0.188-0.161-0.349-0.349-0.349H8.997v-1.084c0-0.683,0.226-0.963,0.789-0.963    c0.175,0,0.349,0.026,0.509,0.08c0.188,0.054,0.403-0.04,0.482-0.214l0.106-0.229c0.082-0.173,0-0.388-0.172-0.454    C10.389,125.501,10.015,125.436,9.627,125.436z"/>
		<path fill="#4B647D" d="M19.08,125.971h-0.67c-0.2,0-0.388,0.135-0.455,0.334l-2.636,8.564c-0.054,0.173,0.066,0.334,0.241,0.334    h0.563c0.201,0,0.387-0.135,0.441-0.334l0.682-2.342h2.85l0.657,2.342c0.052,0.199,0.24,0.334,0.441,0.334h0.656    c0.174,0,0.294-0.161,0.253-0.334l-2.582-8.564C19.468,126.104,19.28,125.971,19.08,125.971z M17.553,131.484l0.468-1.592    c0.416-1.406,0.536-1.932,0.669-2.664h0.028c0.133,0.709,0.24,1.229,0.641,2.664l0.442,1.592H17.553z"/>
		<path fill="#4B647D" d="M27.14,128.325c-0.709,0-1.352,0.375-1.86,0.937l-0.107-0.429c-0.041-0.187-0.227-0.333-0.428-0.333h-0.2    c-0.188,0-0.349,0.16-0.349,0.348v8.698c0,0.187,0.161,0.347,0.349,0.347h0.453c0.189,0,0.349-0.16,0.349-0.347v-2.918    c0.427,0.415,1.044,0.75,1.779,0.75c1.566,0,2.303-1.058,2.303-3.571C29.429,129.047,28.423,128.325,27.14,128.325z     M26.832,134.389c-0.562,0-1.098-0.283-1.485-0.656v-3.627c0.481-0.455,0.936-0.789,1.592-0.789c0.91,0,1.257,0.416,1.257,2.568    C28.196,134.039,27.781,134.389,26.832,134.389z"/>
		<path fill="#4B647D" d="M34.8,128.325c-0.709,0-1.352,0.375-1.861,0.937l-0.107-0.429c-0.039-0.187-0.227-0.333-0.429-0.333    h-0.199c-0.188,0-0.348,0.16-0.348,0.348v8.698c0,0.187,0.16,0.347,0.348,0.347h0.455c0.187,0,0.347-0.16,0.347-0.347v-2.918    c0.429,0.415,1.045,0.75,1.78,0.75c1.566,0,2.302-1.058,2.302-3.571C37.087,129.047,36.085,128.325,34.8,128.325z M34.491,134.389    c-0.562,0-1.098-0.283-1.486-0.656v-3.627c0.483-0.455,0.938-0.789,1.593-0.789c0.91,0,1.258,0.416,1.258,2.568    C35.856,134.039,35.442,134.389,34.491,134.389z"/>
		<path fill="#4B647D" d="M41.309,134.374c-0.041,0.015-0.094,0.015-0.149,0.015c-0.32,0-0.467-0.136-0.467-0.47v-8.056    c0-0.188-0.16-0.348-0.348-0.348h-0.456c-0.188,0-0.347,0.158-0.347,0.348v7.842c0,1.178,0.362,1.633,1.218,1.633    c0.16,0,0.333-0.027,0.495-0.054c0.187-0.04,0.307-0.228,0.267-0.415l-0.067-0.389C41.442,134.415,41.375,134.374,41.309,134.374z    "/>
		<path fill="#4B647D" d="M44.608,125.609c-0.455,0-0.801,0.359-0.801,0.828c0,0.455,0.333,0.813,0.789,0.813    c0.481,0,0.83-0.358,0.83-0.813C45.426,125.958,45.078,125.609,44.608,125.609z"/>
		<path fill="#4B647D" d="M44.85,128.5h-1.445c-0.188,0-0.347,0.16-0.347,0.348v0.041c0,0.2,0.146,0.375,0.347,0.4l0.643,0.107    v5.457c0,0.188,0.16,0.349,0.347,0.349h0.455c0.188,0,0.35-0.161,0.35-0.349v-6.006C45.199,128.66,45.037,128.5,44.85,128.5z"/>
		<path fill="#4B647D" d="M50.213,128.325c-1.58,0-2.624,0.978-2.624,3.521c0,2.514,0.991,3.532,2.743,3.532    c0.843,0,1.405-0.174,1.954-0.562c0.161-0.106,0.187-0.334,0.08-0.48l-0.214-0.281c-0.106-0.146-0.333-0.188-0.495-0.068    c-0.347,0.242-0.722,0.414-1.298,0.414c-1.11,0-1.512-0.45-1.539-2.284h3.681c0.12,0,0.214-0.097,0.214-0.218v-0.237    C52.715,129.234,51.804,128.325,50.213,128.325z M48.834,131.243c0.094-1.606,0.575-2.009,1.352-2.009    c0.963,0,1.311,0.47,1.311,2.009H48.834z"/>
		<path fill="#4B647D" d="M59.585,125.516H59.13c-0.188,0-0.348,0.162-0.348,0.352v3.275c-0.429-0.416-1.043-0.813-1.781-0.813    c-1.564,0-2.3,1.058-2.3,3.569c0,2.761,1.003,3.479,2.288,3.479c0.709,0,1.351-0.308,1.859-0.87l0.094,0.361    c0.054,0.199,0.242,0.334,0.442,0.334h0.201c0.188,0,0.348-0.161,0.348-0.348v-8.992    C59.933,125.676,59.772,125.516,59.585,125.516z M58.782,133.664c-0.481,0.456-0.937,0.725-1.592,0.725    c-0.911,0-1.26-0.416-1.26-2.57c0-2.15,0.416-2.502,1.366-2.502c0.562,0,1.097,0.352,1.485,0.726v3.625L58.782,133.664    L58.782,133.664z"/>
		<path fill="#4B647D" d="M68.914,129.784c-1.109-0.429-1.473-0.695-1.473-1.632c0-0.924,0.562-1.284,1.445-1.284    c0.531,0,0.938,0.12,1.352,0.36c0.16,0.094,0.375,0.024,0.469-0.136l0.173-0.348c0.095-0.177,0.028-0.392-0.133-0.479    c-0.509-0.293-1.084-0.455-1.927-0.455c-1.606,0-2.596,0.803-2.596,2.383c0,1.539,0.692,2.154,2.221,2.742    c1.125,0.428,1.752,0.75,1.752,1.875c0,0.946-0.454,1.512-1.686,1.512c-0.775,0-1.261-0.174-1.859-0.575    c-0.147-0.106-0.36-0.052-0.469,0.106l-0.177,0.31c-0.104,0.161-0.054,0.388,0.106,0.495c0.643,0.441,1.537,0.722,2.486,0.722    c2.186,0,2.865-1.271,2.865-2.636C71.471,130.895,70.346,130.333,68.914,129.784z"/>
		<path fill="#4B647D" d="M77.686,134.053c-0.121-0.146-0.349-0.16-0.496-0.039c-0.278,0.229-0.562,0.387-0.978,0.387    c-1.069,0-1.499-0.494-1.499-2.555c0-2.102,0.389-2.543,1.405-2.543c0.442,0,0.722,0.12,1.019,0.348    c0.146,0.121,0.36,0.106,0.494-0.041l0.215-0.266c0.121-0.148,0.107-0.361-0.054-0.482c-0.481-0.389-0.991-0.532-1.633-0.532    c-1.659,0-2.677,0.964-2.677,3.521c0,2.406,0.951,3.531,2.664,3.531c0.762,0,1.312-0.201,1.752-0.589    c0.146-0.12,0.16-0.351,0.024-0.479L77.686,134.053z"/>
		<path fill="#4B647D" d="M81.225,125.609c-0.455,0-0.803,0.359-0.803,0.828c0,0.455,0.334,0.813,0.79,0.813    c0.481,0,0.83-0.358,0.83-0.813C82.041,125.958,81.691,125.609,81.225,125.609z"/>
		<path fill="#4B647D" d="M81.465,128.5H80.02c-0.188,0-0.349,0.16-0.349,0.348v0.041c0,0.2,0.147,0.375,0.349,0.4l0.646,0.107    v5.457c0,0.188,0.161,0.349,0.348,0.349h0.454c0.188,0,0.351-0.161,0.351-0.349v-6.006C81.812,128.66,81.652,128.5,81.465,128.5z"/>
		<path fill="#4B647D" d="M86.828,128.325c-1.58,0-2.624,0.978-2.624,3.521c0,2.514,0.991,3.532,2.744,3.532    c0.843,0,1.405-0.174,1.954-0.562c0.16-0.106,0.186-0.334,0.08-0.48l-0.215-0.281c-0.106-0.146-0.334-0.188-0.494-0.068    c-0.352,0.242-0.728,0.414-1.299,0.414c-1.111,0-1.516-0.45-1.539-2.284h3.681c0.12,0,0.213-0.097,0.213-0.218v-0.237    C89.329,129.234,88.419,128.325,86.828,128.325z M85.449,131.243c0.094-1.606,0.574-2.009,1.352-2.009    c0.965,0,1.312,0.47,1.312,2.009H85.449z"/>
		<path fill="#4B647D" d="M94.795,128.325c-0.789,0-1.458,0.416-2.047,1.004l-0.107-0.496c-0.039-0.187-0.213-0.333-0.414-0.333    h-0.201c-0.188,0-0.348,0.16-0.348,0.348v6.008c0,0.188,0.159,0.351,0.348,0.351h0.455c0.188,0,0.352-0.161,0.352-0.351v-4.709    c0.479-0.43,1.083-0.803,1.619-0.803c0.604,0,0.812,0.213,0.812,0.975v4.537c0,0.188,0.16,0.351,0.348,0.351h0.455    c0.188,0,0.353-0.161,0.353-0.351v-4.896C96.416,128.82,95.758,128.325,94.795,128.325z"/>
		<path fill="#4B647D" d="M102.91,134.053c-0.121-0.146-0.348-0.16-0.496-0.039c-0.28,0.229-0.562,0.387-0.977,0.387    c-1.07,0-1.498-0.494-1.498-2.555c0-2.102,0.389-2.543,1.4-2.543c0.442,0,0.727,0.12,1.021,0.348    c0.146,0.121,0.361,0.106,0.494-0.041l0.215-0.266c0.121-0.148,0.107-0.361-0.053-0.482c-0.481-0.389-0.992-0.532-1.636-0.532    c-1.655,0-2.676,0.964-2.676,3.521c0,2.406,0.95,3.531,2.663,3.531c0.768,0,1.312-0.201,1.752-0.589    c0.146-0.12,0.162-0.351,0.025-0.479L102.91,134.053z"/>
		<path fill="#4B647D" d="M107.547,128.325c-1.579,0-2.624,0.978-2.624,3.521c0,2.514,0.991,3.532,2.745,3.532    c0.842,0,1.404-0.174,1.953-0.562c0.16-0.106,0.188-0.334,0.08-0.48l-0.215-0.281c-0.106-0.146-0.334-0.188-0.494-0.068    c-0.35,0.242-0.725,0.414-1.299,0.414c-1.109,0-1.512-0.45-1.539-2.284h3.681c0.12,0,0.214-0.097,0.214-0.218v-0.237    C110.049,129.234,109.141,128.325,107.547,128.325z M106.169,131.243c0.095-1.606,0.576-2.009,1.351-2.009    c0.965,0,1.312,0.47,1.312,2.009H106.169z"/>
		<path fill="#4B647D" d="M114.338,131.176c-0.923-0.254-1.204-0.414-1.204-1.044c0-0.575,0.334-0.829,1.058-0.829    c0.4,0,0.709,0.055,1.101,0.229c0.188,0.08,0.39-0.014,0.467-0.188l0.121-0.268c0.08-0.176,0-0.391-0.174-0.469    c-0.431-0.176-0.91-0.28-1.556-0.28c-1.471,0-2.101,0.854-2.101,1.834c0,1.323,0.776,1.817,1.712,2.073    c1.072,0.293,1.42,0.439,1.42,1.188c0,0.631-0.281,0.991-1.188,0.991c-0.552,0-1.03-0.162-1.499-0.431    c-0.161-0.094-0.375-0.041-0.473,0.136l-0.146,0.254c-0.095,0.161-0.04,0.374,0.121,0.479c0.495,0.279,1.205,0.521,1.938,0.521    c1.578,0,2.369-0.615,2.369-2.008C116.305,131.857,115.369,131.457,114.338,131.176z"/>
		<path fill="#4B647D" d="M3.474,95.992L36.534,96c13.825,0,25.038-11.208,25.038-25.039c0-10.714-5.668-19.939-14.703-23.437    c-0.016-0.007-0.258-0.084-0.258-0.391c0-0.168,0.099-0.299,0.235-0.385c6.964-4.369,11.269-12.428,11.269-21.714    C58.115,11.206,46.904,0,33.08,0H3.474C1.555,0-0.001,1.554-0.001,3.474V92.52C-0.001,94.436,1.555,95.992,3.474,95.992z     M33.771,78.178c0,0.441-0.378,0.818-0.819,0.818h-1.26c-0.44,0-0.818-0.377-0.818-0.818v-8.631h-7.816v8.631    c0,0.441-0.378,0.818-0.818,0.818h-1.264c-0.441,0-0.819-0.377-0.819-0.818V58.103c0-0.442,0.378-0.819,0.819-0.819h1.264    c0.44,0,0.818,0.377,0.818,0.819v8.893h7.816v-8.893c0-0.442,0.377-0.819,0.818-0.819h1.26c0.441,0,0.819,0.377,0.819,0.819    V78.178z M20.073,17.734c0-0.441,0.382-0.819,0.823-0.819h12.073c0.441,0,0.82,0.378,0.82,0.819v0.85    c0,0.441-0.378,0.819-0.82,0.819h-9.995v6.979h8.514c0.441,0,0.819,0.381,0.819,0.823v0.851c0,0.44-0.377,0.819-0.819,0.819    h-8.514v8.938c0,0.442-0.378,0.823-0.819,0.823h-1.259c-0.441,0-0.823-0.381-0.823-0.823V17.734z"/>
		<path fill="#FAC300" d="M32.953,57.284h-1.26c-0.44,0-0.818,0.377-0.818,0.819v8.893h-7.816v-8.893    c0-0.442-0.378-0.819-0.818-0.819h-1.264c-0.441,0-0.819,0.377-0.819,0.819v20.075c0,0.441,0.378,0.818,0.819,0.818h1.264    c0.44,0,0.818-0.377,0.818-0.818v-8.631h7.816v8.631c0,0.441,0.377,0.818,0.818,0.818h1.26c0.441,0,0.819-0.377,0.819-0.818    V58.103C33.772,57.661,33.394,57.284,32.953,57.284z"/>
		<path fill="#FAC300" d="M20.897,38.634h1.259c0.441,0,0.819-0.381,0.819-0.823v-8.938h8.514c0.441,0,0.819-0.378,0.819-0.819    v-0.851c0-0.442-0.377-0.823-0.819-0.823h-8.514v-6.979h9.995c0.441,0,0.82-0.378,0.82-0.819v-0.85    c0-0.441-0.378-0.819-0.82-0.819H20.897c-0.441,0-0.823,0.378-0.823,0.819v20.077C20.074,38.253,20.456,38.634,20.897,38.634z"/>
	</g>
</g>
<g id="Layer_4" display="none">
	<rect display="inline" fill="none" width="123" height="139"/>
</g>
</svg>